<?xml version="1.0" standalone="no"?>
<!DOCTYPE svg PUBLIC "-//W3C//DTD SVG 20010904//EN"
 "http://www.w3.org/TR/2001/REC-SVG-20010904/DTD/svg10.dtd">
<svg version="1.0" xmlns="http://www.w3.org/2000/svg"
 width="1884.000000pt" height="1884.000000pt" viewBox="0 0 1884.000000 1884.000000"
 preserveAspectRatio="xMidYMid meet">
<metadata>
Created by potrace 1.14, written by Peter Selinger 2001-2017
</metadata>
<g transform="translate(0.000000,1884.000000) scale(0.100000,-0.100000)"
fill="#000000" stroke="none">
<path d="M15064 18740 c-175 -133 -257 -242 -354 -468 -109 -253 -148 -499
-150 -942 -1 -218 -15 -349 -39 -374 -20 -19 -21 -19 -148 5 -117 22 -153 24
-413 24 -289 0 -506 -14 -660 -42 -47 -8 -104 -12 -128 -9 -25 3 -119 36 -211
72 -296 119 -364 144 -491 180 -69 19 -208 62 -310 95 -259 85 -406 120 -785
189 -357 65 -501 86 -665 95 -58 4 -132 11 -164 16 -32 6 -102 12 -156 14 -53
2 -144 10 -201 19 -229 33 -366 39 -778 33 -381 -4 -436 -7 -906 -51 -275 -25
-581 -57 -679 -71 -252 -36 -624 -108 -800 -156 -198 -54 -691 -216 -841 -277
-528 -215 -708 -300 -1095 -515 -452 -251 -544 -309 -685 -427 -103 -87 -155
-124 -240 -169 -33 -17 -110 -75 -171 -129 -181 -158 -353 -304 -418 -354 -68
-51 -539 -523 -662 -663 -283 -320 -402 -478 -732 -970 -192 -287 -272 -417
-393 -640 -83 -154 -167 -314 -186 -355 -87 -188 -238 -591 -287 -765 -20 -71
-57 -173 -81 -225 -93 -200 -114 -276 -156 -555 -16 -110 -41 -256 -54 -325
-57 -286 -94 -624 -115 -1050 -16 -315 0 -842 35 -1168 20 -181 131 -898 155
-998 19 -83 258 -826 332 -1034 98 -278 327 -752 464 -965 42 -64 87 -145 101
-178 28 -69 28 -113 -2 -292 -23 -145 -30 -385 -15 -581 9 -114 10 -190 4
-221 l-9 -47 -145 -58 c-80 -33 -251 -95 -380 -139 -345 -118 -506 -187 -715
-307 -115 -67 -300 -208 -376 -289 -131 -139 -246 -338 -319 -551 l-41 -121 3
-358 3 -358 38 -110 c100 -290 240 -493 456 -663 47 -38 120 -100 161 -138 41
-39 106 -92 145 -118 38 -27 98 -79 133 -117 41 -45 94 -87 150 -121 156 -93
230 -147 325 -236 52 -49 116 -99 143 -111 75 -36 131 -77 229 -172 105 -102
186 -156 299 -201 l81 -33 450 0 450 0 90 28 c50 15 130 46 178 69 73 35 97
53 144 106 31 35 89 89 129 119 89 67 122 116 180 270 25 65 65 155 90 200 60
111 73 150 84 263 6 58 25 146 50 225 24 81 49 194 65 298 14 92 25 170 25
172 0 11 35 2 151 -38 68 -24 160 -56 204 -71 44 -15 112 -38 150 -52 130 -47
299 -92 422 -113 68 -12 158 -32 200 -46 75 -23 81 -24 158 -11 44 8 190 17
325 21 135 3 279 12 320 20 41 7 115 16 163 19 93 7 267 57 470 137 53 22 108
39 122 39 13 0 135 -39 272 -87 l248 -87 215 -6 c172 -6 262 -14 450 -43 333
-51 475 -65 715 -72 116 -3 248 -11 295 -17 90 -11 182 -10 970 17 586 20 687
27 835 58 144 30 298 53 460 67 67 6 169 23 230 39 61 16 160 39 220 51 156
30 299 69 535 145 113 36 266 84 340 107 74 22 176 61 225 85 50 25 171 78
270 118 100 40 235 100 300 133 66 34 163 79 215 102 359 156 956 527 1227
762 60 52 148 118 197 147 98 60 300 246 701 646 315 314 507 549 823 1005 67
96 156 218 198 270 85 106 335 522 421 700 179 372 373 859 438 1102 14 54 44
148 66 210 72 202 130 465 223 1018 72 423 77 464 86 680 5 113 12 216 15 229
11 42 6 761 -5 896 -14 161 -29 254 -74 467 -20 91 -45 242 -56 335 -24 197
-137 759 -179 888 -16 50 -32 113 -36 140 -5 28 -31 96 -60 155 -48 97 -163
386 -179 453 -7 31 11 145 49 297 13 52 26 142 30 200 4 57 13 134 21 170 19
89 19 458 0 588 -8 53 -20 151 -26 217 -7 66 -27 180 -46 254 -40 156 -42 182
-8 91 13 -36 22 -53 19 -37 -3 15 -8 47 -12 72 -4 32 -10 44 -20 43 -17 -4
-276 545 -271 575 2 11 10 23 18 28 102 52 306 139 428 183 231 83 335 132
467 219 255 169 402 295 474 406 40 62 112 234 142 341 24 82 69 389 69 467 0
172 -96 472 -215 672 -72 121 -135 185 -339 343 -99 78 -251 200 -336 273 -85
72 -209 168 -276 212 -66 45 -167 121 -225 170 -161 137 -271 222 -426 327
l-141 96 -784 0 -784 0 -130 -100z m996 -557 c30 -8 68 -22 85 -30 45 -24 263
-181 320 -231 78 -70 297 -231 440 -324 81 -52 172 -124 240 -187 122 -113
217 -188 315 -246 170 -102 289 -297 290 -475 0 -142 -53 -274 -145 -358 -32
-29 -111 -78 -206 -128 -187 -98 -176 -94 -379 -144 -91 -23 -203 -52 -250
-66 -97 -29 -263 -112 -318 -159 -49 -43 -85 -60 -162 -80 -93 -24 -145 -56
-241 -147 -46 -44 -107 -95 -136 -114 l-51 -33 54 -126 c36 -82 90 -179 158
-282 215 -330 322 -548 450 -913 l61 -175 3 -330 c5 -433 -7 -520 -117 -853
-108 -324 -239 -621 -403 -907 -47 -82 -109 -196 -137 -253 -28 -56 -72 -134
-96 -172 -25 -39 -66 -110 -92 -158 -26 -48 -63 -112 -83 -142 -20 -30 -65
-104 -100 -165 -34 -60 -97 -162 -140 -225 -42 -63 -125 -198 -184 -300 -123
-211 -135 -228 -301 -440 -66 -85 -160 -214 -207 -286 -84 -128 -368 -511
-545 -735 -49 -63 -105 -136 -123 -164 -19 -27 -70 -88 -114 -135 -45 -47
-144 -162 -221 -255 -76 -94 -196 -229 -265 -301 -69 -71 -173 -180 -231 -241
-59 -61 -128 -142 -154 -179 -32 -47 -70 -85 -116 -119 -51 -36 -99 -87 -179
-187 -72 -90 -131 -153 -171 -183 -34 -25 -102 -87 -153 -138 -50 -52 -109
-109 -131 -128 -22 -19 -69 -68 -105 -109 -36 -40 -82 -86 -103 -101 -21 -15
-141 -124 -267 -242 -126 -118 -284 -259 -352 -313 -68 -54 -170 -141 -227
-193 -131 -121 -225 -198 -326 -269 -44 -31 -105 -83 -135 -115 -109 -118
-138 -144 -280 -248 -80 -58 -244 -185 -365 -280 -529 -419 -924 -708 -1390
-1015 -110 -73 -239 -160 -287 -194 -47 -33 -148 -95 -224 -136 -75 -41 -176
-103 -223 -136 -47 -34 -158 -103 -247 -153 -88 -51 -207 -121 -265 -157 -155
-97 -218 -132 -514 -286 -312 -161 -340 -174 -535 -237 -225 -72 -348 -101
-601 -140 -213 -34 -248 -36 -384 -32 -130 4 -184 11 -401 55 -286 59 -480
121 -699 226 -160 77 -549 299 -771 442 -91 58 -168 103 -171 101 -2 -3 5 -19
17 -35 l22 -29 -22 -126 c-11 -70 -41 -190 -65 -267 -71 -224 -118 -403 -221
-843 -144 -616 -169 -714 -208 -817 -44 -113 -71 -151 -129 -179 -53 -25 -121
-27 -262 -6 -138 21 -183 46 -318 173 -122 116 -215 191 -407 327 -511 363
-747 560 -850 710 -41 59 -58 101 -86 210 -31 118 -30 156 6 267 50 157 103
221 251 301 137 75 535 251 726 322 236 88 527 207 612 249 37 19 151 62 252
96 179 60 433 174 433 195 -1 6 -18 19 -38 31 -53 30 -67 56 -77 142 -5 42
-32 174 -59 292 -83 362 -98 501 -81 780 18 304 31 371 106 540 97 222 375
680 479 789 195 203 364 332 656 496 85 49 199 115 253 147 54 33 130 75 170
93 166 76 610 316 707 382 58 39 164 103 235 143 72 40 173 102 225 137 52 36
187 126 299 200 112 74 247 167 300 207 53 40 148 107 212 148 63 41 162 115
220 165 57 49 190 155 294 236 105 80 220 173 257 206 37 33 141 119 230 192
90 74 210 179 268 234 58 56 148 139 200 185 271 238 1077 1063 1204 1231 44
57 112 138 151 179 39 41 89 102 110 135 20 33 63 87 95 120 31 33 93 109 136
170 43 60 131 164 195 230 64 67 137 152 161 191 25 38 72 99 106 136 33 37
76 91 95 120 19 29 59 86 89 126 31 41 83 122 117 180 33 59 107 169 164 245
57 75 132 190 166 256 35 65 97 163 138 217 118 156 375 550 499 765 62 108
153 258 204 334 50 75 124 204 165 285 73 144 230 392 359 568 90 123 275 298
467 442 129 97 190 135 312 195 174 85 346 145 497 174 200 38 335 61 400 67
148 14 668 -54 854 -112 100 -31 201 -82 299 -151 43 -30 84 -53 90 -50 7 2
18 22 26 43 7 22 46 113 86 204 93 210 107 259 145 482 48 289 69 503 80 788
17 467 19 481 92 623 43 83 153 210 214 248 62 38 174 43 284 12z m-5670
-1333 c25 -5 114 -16 199 -25 84 -9 206 -27 270 -41 64 -14 220 -45 346 -70
521 -102 932 -198 959 -225 14 -13 -43 -69 -154 -151 -135 -100 -504 -473
-550 -556 -60 -108 -53 -105 -113 -38 -28 33 -87 94 -129 135 -42 42 -140 150
-218 240 -147 171 -273 308 -475 520 -237 249 -225 229 -135 211z m-1590 -9
c0 -19 -119 -168 -184 -231 -37 -36 -96 -106 -129 -157 -36 -52 -81 -106 -107
-125 -24 -18 -84 -81 -132 -138 -49 -58 -135 -150 -191 -205 -57 -55 -135
-138 -174 -185 -38 -47 -107 -118 -152 -159 -44 -40 -111 -109 -146 -152 -36
-43 -89 -95 -118 -115 -29 -21 -104 -88 -167 -149 -63 -61 -153 -141 -200
-178 -47 -37 -103 -87 -124 -113 -21 -25 -82 -83 -136 -128 -53 -44 -144 -121
-202 -171 -136 -117 -376 -307 -608 -481 -102 -77 -232 -177 -290 -224 -58
-46 -152 -114 -210 -151 -58 -37 -132 -87 -165 -111 -32 -24 -78 -54 -101 -68
-54 -33 -268 -186 -451 -322 -79 -60 -148 -108 -153 -108 -17 0 -49 76 -75
181 -14 57 -46 167 -70 244 -24 77 -62 205 -84 285 -22 80 -63 212 -91 295
-63 186 -111 379 -139 555 -12 74 -30 153 -39 174 l-16 39 88 85 c49 46 123
109 165 140 42 31 121 92 176 137 55 44 118 91 140 104 22 14 90 59 152 102
61 43 180 118 265 166 84 48 194 115 243 149 98 67 243 146 577 315 418 211
1102 439 1668 558 429 90 602 115 899 130 107 6 196 13 199 16 9 9 82 5 82 -4z
m1001 -256 c64 -66 152 -165 196 -220 193 -241 742 -844 869 -953 52 -46 110
-104 127 -130 18 -25 42 -57 53 -71 l21 -25 -32 -45 c-17 -25 -43 -74 -58
-108 -15 -35 -100 -186 -191 -335 -90 -150 -213 -358 -273 -463 -61 -104 -179
-296 -264 -425 -85 -129 -180 -275 -212 -325 -31 -49 -84 -124 -117 -165 -99
-121 -168 -218 -277 -387 -56 -87 -132 -192 -168 -233 -36 -41 -85 -104 -108
-140 -174 -269 -226 -341 -311 -429 -124 -129 -257 -277 -400 -446 -66 -77
-158 -183 -205 -235 -48 -52 -112 -127 -143 -166 -31 -39 -138 -146 -237 -239
-100 -92 -203 -198 -230 -234 -27 -36 -118 -129 -203 -207 -391 -359 -368
-339 -619 -549 -480 -402 -558 -463 -577 -451 -6 3 -31 41 -58 83 -26 43 -117
186 -202 318 -254 394 -420 677 -529 902 -56 117 -121 243 -144 280 -23 37
-62 112 -85 166 -24 54 -57 122 -73 150 -16 29 -51 104 -76 167 -26 63 -80
178 -121 255 -65 126 -115 242 -198 462 -16 43 -44 90 -68 118 -33 37 -39 51
-31 64 5 9 84 63 175 121 91 58 192 129 224 159 33 30 124 97 204 149 80 52
176 123 215 157 102 91 231 185 351 257 58 35 149 97 202 140 53 42 151 113
217 159 149 103 198 143 357 296 69 67 182 165 250 219 68 54 175 144 238 199
63 56 142 123 175 149 60 48 142 126 348 333 62 61 160 151 218 201 58 49 172
163 255 253 82 90 212 229 289 309 78 80 170 183 205 230 35 47 107 128 159
181 133 134 290 314 320 368 27 51 145 192 213 258 23 23 63 53 88 68 l45 25
40 -47 c22 -27 92 -102 156 -168z m-6182 -2162 c19 -51 59 -198 81 -304 12
-57 44 -171 71 -254 27 -82 80 -251 119 -374 39 -123 86 -265 106 -315 100
-259 126 -357 106 -401 -7 -14 -39 -43 -73 -63 -139 -84 -208 -132 -274 -192
-38 -35 -122 -97 -185 -138 -63 -41 -171 -117 -240 -167 -69 -51 -237 -166
-375 -255 -355 -230 -456 -302 -574 -407 -57 -51 -142 -118 -190 -150 -47 -31
-129 -89 -182 -130 -52 -40 -101 -73 -108 -73 -16 0 -15 1 59 285 75 284 111
391 225 665 51 124 118 290 148 370 68 178 244 531 290 579 54 57 78 93 207
316 135 232 147 250 235 344 34 36 89 107 122 156 78 116 167 229 263 330 41
44 90 108 108 143 18 34 37 62 41 62 5 0 13 -12 20 -27z m1691 -923 c0 -52
-68 -125 -110 -118 -18 3 -13 12 37 70 32 37 61 67 66 67 4 1 7 -8 7 -19z
m-936 -1279 c3 -4 21 -61 41 -125 109 -360 534 -1268 785 -1675 45 -74 126
-218 180 -321 53 -102 136 -244 184 -314 48 -70 102 -159 120 -196 19 -38 54
-102 79 -142 79 -127 131 -242 123 -271 -12 -48 -64 -94 -153 -137 -48 -23
-114 -63 -147 -89 -34 -27 -122 -87 -196 -133 -74 -47 -184 -116 -245 -155
-60 -39 -164 -99 -230 -133 -66 -35 -131 -71 -145 -80 -54 -37 -996 -573
-1063 -605 -92 -43 -310 -195 -500 -347 -82 -65 -165 -127 -185 -137 -23 -12
-46 -35 -61 -62 -13 -24 -90 -112 -170 -194 -127 -131 -153 -164 -204 -255
-67 -122 -189 -273 -223 -278 -29 -4 -29 -3 -108 209 -35 96 -89 237 -119 314
-30 77 -66 178 -79 225 -14 47 -39 119 -56 160 -16 41 -41 134 -55 205 -14 72
-42 175 -62 229 -20 55 -45 154 -56 220 -11 67 -36 187 -55 268 -49 209 -52
230 -75 458 -17 164 -22 299 -26 680 -2 261 0 540 4 619 l9 144 35 29 c19 17
60 46 91 66 31 21 135 100 230 178 286 232 493 384 966 709 78 53 186 135 240
181 53 46 196 151 317 234 121 83 344 236 495 340 151 104 283 189 292 189 9
1 19 -3 22 -8z m12583 -844 c61 -120 163 -577 209 -937 40 -321 57 -1019 29
-1231 -8 -65 -15 -141 -15 -171 0 -29 -4 -69 -9 -88 -6 -19 -15 -89 -21 -155
-11 -123 -62 -503 -81 -610 -6 -33 -24 -97 -40 -143 -15 -46 -38 -136 -49
-200 -15 -79 -37 -156 -70 -238 -27 -67 -60 -167 -74 -222 -32 -125 -73 -233
-188 -492 -144 -324 -213 -470 -284 -602 -37 -68 -101 -188 -143 -268 -43 -80
-103 -181 -134 -224 -32 -44 -88 -133 -125 -199 -44 -79 -91 -146 -137 -196
-39 -42 -103 -124 -143 -182 -39 -58 -103 -135 -141 -171 -38 -37 -104 -113
-147 -170 -165 -220 -299 -356 -534 -544 -47 -37 -116 -95 -155 -129 -38 -34
-99 -84 -134 -110 -35 -27 -82 -73 -105 -102 -31 -40 -69 -72 -151 -123 -61
-38 -187 -121 -280 -185 -94 -64 -213 -140 -265 -169 -364 -201 -452 -248
-468 -250 -19 -1 -73 126 -163 384 -57 163 -175 452 -224 550 -18 36 -52 111
-75 165 -85 203 -174 382 -229 460 -77 110 -411 667 -411 686 0 30 57 95 170
193 125 110 534 501 793 759 93 92 172 167 176 167 8 0 321 324 593 612 64 69
133 152 152 185 23 39 68 91 123 140 104 94 258 265 283 313 10 20 55 71 100
115 45 44 106 116 136 160 29 44 117 154 194 245 143 167 274 340 434 573 49
71 124 174 168 230 44 56 96 134 115 172 20 39 64 102 98 140 34 39 80 99 102
135 22 36 66 108 98 160 32 52 98 151 146 220 120 172 175 263 278 458 48 92
128 229 177 304 49 75 110 172 135 215 126 216 252 412 260 407 5 -3 17 -20
26 -37z m-5164 -6322 c47 -72 114 -193 242 -440 34 -66 84 -153 110 -194 66
-102 134 -250 265 -576 62 -154 150 -361 197 -460 83 -176 113 -265 113 -336
0 -43 30 -27 -310 -164 -337 -135 -418 -162 -720 -239 -260 -66 -331 -79 -502
-95 -53 -5 -141 -19 -195 -30 -109 -23 -699 -103 -948 -127 -207 -21 -915 -25
-1160 -6 -93 7 -237 17 -320 23 -179 12 -494 55 -512 71 -14 11 -18 48 -5 48
14 0 391 218 515 298 67 44 172 109 232 145 61 36 137 85 170 109 33 24 103
71 157 105 53 34 142 96 199 138 57 42 161 111 232 153 72 43 146 95 166 116
76 83 109 108 212 161 74 38 153 91 255 173 208 165 381 296 504 382 58 41
157 115 221 165 64 49 205 160 315 245 109 85 242 196 294 246 110 105 184
164 208 164 10 0 37 -31 65 -75z"/>
<path d="M7295 1730 c3 -5 8 -10 11 -10 2 0 4 5 4 10 0 6 -5 10 -11 10 -5 0
-7 -4 -4 -10z"/>
</g>
</svg>
