<svg xmlns="http://www.w3.org/2000/svg" version="1.1" viewBox="1.6139578819274902 1.605147123336792 598.9644775390625 628.3948364257812" width="603.00" height="630.00">
<g stroke-width="2.00" fill="none" stroke-linecap="butt">
<path stroke="#686274" d="&#10;  M 557.68 154.01&#10;  Q 557.95 156.66 558.72 159.24&#10;  Q 559.71 162.57 559.92 164.38&#10;  C 560.42 168.45 560.52 171.92 561.26 176.47&#10;  C 562.04 181.26 561.64 186.24 561.57 191.12&#10;  Q 561.54 193.63 560.96 195.87&#10;  C 560.08 199.33 560.83 202.49 559.84 206.13&#10;  Q 558.76 210.14 558.02 214.32&#10;  Q 557.60 216.68 558.26 218.48&#10;  Q 559.86 222.89 561.33 227.04&#10;  C 562.42 230.13 563.98 232.93 565.39 235.93" data-c-stroke="686274"/>
<path stroke="#6b6d80" d="&#10;  M 236.52 580.44&#10;  L 220.27 574.56&#10;  Q 219.69 574.35 219.10 574.53&#10;  C 216.56 575.29 214.37 576.65 211.70 577.45&#10;  Q 208.84 578.32 205.60 579.57&#10;  Q 203.11 580.53 197.92 580.67&#10;  C 196.34 580.71 194.89 581.41 193.31 581.47&#10;  Q 185.52 581.78 177.66 582.00&#10;  C 175.82 582.05 174.09 582.56 172.28 582.89" data-c-stroke="6b6d80"/>
<path stroke="#6b6d80" d="&#10;  M 142.37 574.11&#10;  L 134.52 571.23&#10;  A 0.55 0.55 0.0 0 0 133.79 571.67&#10;  Q 133.16 576.16 132.47 581.05&#10;  C 131.82 585.75 129.56 589.49 129.42 594.44&#10;  Q 129.30 598.66 127.48 601.82&#10;  Q 124.99 606.15 123.42 611.14&#10;  C 122.58 613.81 121.33 616.47 119.11 618.24&#10;  C 117.31 619.67 115.08 621.12 113.83 623.10&#10;  Q 112.94 624.50 111.76 625.24&#10;  Q 106.42 628.58 98.72 630.00" data-c-stroke="6b6d80"/>
<path stroke="#886344" d="&#10;  M 496.77 65.50&#10;  Q 495.98 77.85 493.87 90.44&#10;  Q 492.82 96.74 491.03 100.67&#10;  Q 488.47 106.27 486.40 112.01&#10;  Q 486.12 112.80 485.49 112.25&#10;  C 481.28 108.58 475.81 105.50 470.20 104.55&#10;  Q 467.51 104.10 464.78 103.46&#10;  Q 461.26 102.64 457.66 102.36&#10;  Q 454.02 102.08 450.50 101.68&#10;  Q 446.25 101.19 438.03 103.20" data-c-stroke="886344"/>
<path stroke="#887558" d="&#10;  M 438.03 103.20&#10;  C 428.84 104.22 417.24 108.94 410.09 114.41&#10;  C 403.94 119.12 397.09 124.78 392.81 131.03&#10;  Q 388.61 137.15 384.44 144.12&#10;  Q 382.36 147.58 380.83 151.11&#10;  Q 379.22 154.82 377.08 158.02&#10;  Q 373.30 163.66 370.22 169.51&#10;  Q 366.37 176.80 363.87 180.58&#10;  Q 361.04 184.87 358.11 189.79&#10;  C 355.45 194.25 351.89 197.73 349.76 202.53&#10;  Q 348.47 205.43 346.52 208.39&#10;  Q 344.53 211.39 342.56 213.89&#10;  C 339.27 218.05 337.84 222.84 334.45 226.89&#10;  C 332.48 229.24 331.54 232.06 329.28 234.22&#10;  Q 327.34 236.08 326.03 238.42&#10;  Q 323.87 242.28 319.77 246.11&#10;  Q 316.85 248.83 313.41 254.37&#10;  C 311.51 257.44 308.67 259.48 306.93 262.67&#10;  C 305.18 265.89 302.23 267.95 300.18 271.00&#10;  Q 296.01 277.19 289.36 283.82&#10;  C 285.24 287.92 281.70 292.65 277.85 296.42&#10;  C 271.47 302.66 265.72 309.46 259.01 315.24&#10;  Q 255.72 318.08 252.74 321.30&#10;  C 248.66 325.71 243.85 328.93 239.56 333.03&#10;  C 235.25 337.15 230.44 340.86 225.67 344.61&#10;  C 221.68 347.75 218.27 351.54 214.08 354.24&#10;  Q 209.65 357.10 205.41 360.57&#10;  C 200.96 364.21 196.08 366.85 191.65 370.23&#10;  Q 185.47 374.95 179.97 378.00&#10;  Q 175.81 380.31 172.27 382.94&#10;  Q 168.88 385.47 165.51 387.16&#10;  Q 159.56 390.15 153.76 393.54&#10;  C 151.23 395.02 148.38 395.95 146.02 397.61&#10;  Q 143.46 399.41 140.64 400.97&#10;  Q 133.57 404.90 127.08 409.39&#10;  C 122.89 412.30 119.40 416.25 115.73 419.78&#10;  Q 114.31 421.15 113.36 422.81&#10;  C 110.42 427.97 107.01 432.73 104.38 437.99&#10;  C 101.09 444.56 97.87 450.29 97.48 457.95&#10;  Q 97.21 463.42 96.80 469.50&#10;  Q 96.56 473.03 98.24 483.80" data-c-stroke="887558"/>
<path stroke="#886344" d="&#10;  M 98.24 483.80&#10;  Q 99.71 490.35 101.16 496.95&#10;  C 101.82 499.94 100.68 503.37 104.28 504.84&#10;  Q 106.34 505.68 104.33 506.64&#10;  L 95.11 511.03" data-c-stroke="886344"/>
<path stroke="#84776a" d="&#10;  M 95.11 511.03&#10;  Q 91.53 512.38 87.18 513.63&#10;  C 84.71 514.34 82.99 515.75 80.76 516.73&#10;  Q 71.34 520.86 60.60 524.94&#10;  C 57.04 526.30 53.58 528.15 50.01 529.76&#10;  Q 44.58 532.20 38.76 535.51&#10;  C 34.22 538.09 32.90 542.96 31.72 547.56&#10;  Q 31.29 549.22 31.99 551.67&#10;  Q 32.47 553.37 32.93 555.57" data-c-stroke="84776a"/>
<path stroke="#886344" d="&#10;  M 32.93 555.57&#10;  Q 33.55 557.99 35.03 560.25&#10;  Q 37.01 563.28 40.20 566.30&#10;  Q 43.82 569.73 49.80 574.64&#10;  C 58.78 581.99 69.35 588.26 77.05 596.73&#10;  Q 79.68 599.61 82.95 600.34&#10;  Q 86.41 601.11 90.28 601.30&#10;  Q 95.13 601.53 96.97 597.09&#10;  Q 99.01 592.18 100.08 587.40&#10;  Q 103.56 571.79 107.05 556.21&#10;  Q 108.99 547.55 112.38 536.74&#10;  Q 113.34 533.68 114.29 526.59&#10;  Q 114.36 526.02 114.02 525.56&#10;  L 113.23 524.51&#10;  Q 112.31 523.30 113.60 524.10&#10;  C 118.30 526.98 122.59 530.31 127.40 533.05&#10;  Q 131.41 535.34 135.50 537.89&#10;  Q 144.66 543.59 156.41 547.52&#10;  C 160.74 548.97 165.13 549.32 169.48 550.42&#10;  Q 173.27 551.38 176.82 551.50&#10;  Q 182.33 551.69 184.51 551.36&#10;  Q 190.03 550.54 195.19 549.68&#10;  C 201.70 548.59 207.15 546.68 213.13 544.61&#10;  Q 216.73 543.36 220.37 541.35&#10;  Q 227.40 537.47 234.42 533.72&#10;  Q 238.57 531.50 243.04 528.45&#10;  C 248.76 524.54 255.23 521.55 260.99 516.99&#10;  C 264.76 514.00 269.76 512.31 273.70 509.02&#10;  C 276.70 506.51 280.31 504.54 283.56 502.21&#10;  Q 291.31 496.65 299.23 490.98&#10;  C 304.90 486.92 310.23 482.29 315.94 477.91&#10;  C 325.18 470.83 333.81 462.87 343.27 455.96&#10;  Q 345.21 454.55 346.95 452.07&#10;  Q 348.51 449.85 352.03 447.37&#10;  Q 357.62 443.43 363.70 437.20&#10;  C 367.36 433.46 371.71 430.68 375.46 426.97&#10;  Q 381.51 420.99 387.40 415.17&#10;  C 389.09 413.51 391.06 412.55 392.49 410.54&#10;  Q 395.03 406.97 398.24 404.47&#10;  C 400.77 402.50 402.02 399.77 404.60 398.01&#10;  C 408.15 395.61 410.79 391.26 413.39 387.91&#10;  C 414.61 386.34 416.12 385.31 417.74 384.21&#10;  C 419.15 383.26 419.74 381.89 420.62 380.52&#10;  C 422.53 377.52 425.60 375.15 427.82 372.32&#10;  C 430.66 368.68 434.05 366.01 436.82 362.37&#10;  C 439.69 358.61 442.86 355.00 445.69 351.14&#10;  C 447.34 348.89 449.61 347.33 451.15 344.85&#10;  Q 452.24 343.08 453.46 341.48&#10;  Q 463.29 328.48 472.01 315.81&#10;  C 473.39 313.81 474.37 311.66 475.83 309.65&#10;  Q 479.37 304.81 483.01 300.06&#10;  C 487.38 294.36 490.13 287.37 494.11 281.49&#10;  Q 497.77 276.06 500.91 269.99&#10;  C 502.18 267.53 503.99 265.46 505.05 262.95&#10;  C 506.78 258.86 509.72 255.19 511.40 251.33&#10;  C 513.94 245.50 517.17 240.66 519.85 235.03&#10;  Q 526.28 221.55 530.52 206.39&#10;  Q 532.48 199.41 532.64 192.93&#10;  Q 532.86 184.13 532.43 175.00&#10;  C 532.25 171.22 530.58 168.02 529.54 164.48&#10;  Q 528.45 160.77 526.72 156.69&#10;  Q 521.52 144.37 513.96 133.23&#10;  C 511.82 130.08 511.22 126.81 509.50 123.57&#10;  Q 509.18 122.97 509.76 122.59&#10;  C 511.14 121.69 512.50 120.92 513.66 119.72&#10;  C 515.86 117.45 518.58 114.14 521.82 113.43&#10;  Q 523.89 112.98 525.93 112.19&#10;  C 527.44 111.60 528.16 110.21 529.58 109.35&#10;  Q 535.11 106.01 537.78 105.26&#10;  Q 544.01 103.53 550.47 101.91&#10;  C 554.36 100.94 556.82 98.75 560.29 97.17&#10;  C 567.37 93.95 570.60 86.84 569.40 79.15&#10;  Q 568.81 75.39 565.72 71.01&#10;  Q 563.74 68.23 560.78 66.39&#10;  Q 555.52 63.14 552.20 59.74&#10;  Q 550.34 57.84 548.37 55.96&#10;  Q 546.65 54.32 544.11 52.65&#10;  Q 535.21 46.81 527.36 39.77" data-c-stroke="886344"/>
<path stroke="#84776a" d="&#10;  M 527.36 39.77&#10;  Q 523.53 36.90 519.92 34.09&#10;  C 517.05 31.87 509.52 29.96 505.86 33.04&#10;  Q 499.93 38.04 497.83 45.67&#10;  C 497.16 48.12 497.29 50.57 497.23 53.18&#10;  C 497.16 56.79 496.51 61.23 496.77 65.50" data-c-stroke="84776a"/>
<path stroke="#fac484" d="&#10;  M 527.36 39.77&#10;  Q 526.12 40.71 525.14 41.78&#10;  C 522.30 44.88 518.71 47.47 515.52 50.24&#10;  Q 512.56 52.81 509.45 55.21&#10;  Q 506.34 57.60 503.28 60.05&#10;  Q 502.68 60.53 500.24 62.98&#10;  Q 498.67 64.56 496.77 65.50" data-c-stroke="fac484"/>
<path stroke="#fac484" d="&#10;  M 32.93 555.57&#10;  Q 40.23 552.83 47.54 550.41&#10;  Q 51.55 549.08 56.86 546.91&#10;  Q 61.38 545.06 66.19 543.48&#10;  C 68.59 542.70 70.69 541.25 73.11 540.29&#10;  C 74.97 539.56 76.31 538.30 78.24 537.54&#10;  C 80.64 536.61 82.87 534.98 85.05 534.07&#10;  Q 97.75 528.77 110.37 523.40&#10;  A 1.01 1.01 0.0 0 0 110.46 521.59&#10;  Q 101.99 516.94 95.11 511.03" data-c-stroke="fac484"/>
<path stroke="#fec272" d="&#10;  M 98.24 483.80&#10;  L 102.04 483.69" data-c-stroke="fec272"/>
<path stroke="#fac484" d="&#10;  M 102.04 483.69&#10;  Q 102.53 488.30 104.05 491.49&#10;  Q 106.06 495.72 109.25 499.59&#10;  C 111.35 502.12 112.33 505.04 114.48 507.54&#10;  Q 114.53 507.60 114.61 507.61&#10;  Q 119.74 507.86 124.97 507.69&#10;  A 0.11 0.11 0.0 0 0 125.06 507.53&#10;  Q 120.79 498.62 117.66 490.72&#10;  C 114.51 482.77 114.93 474.04 115.32 465.00&#10;  Q 115.50 460.66 116.72 457.27&#10;  C 118.98 450.98 121.25 445.01 124.65 439.09&#10;  C 126.12 436.53 128.12 434.61 129.82 432.28&#10;  Q 131.69 429.70 134.13 427.77&#10;  C 138.03 424.68 140.87 420.93 145.45 418.42&#10;  Q 151.40 415.16 157.61 411.57&#10;  Q 162.64 408.66 167.82 406.02&#10;  Q 174.96 402.39 178.04 400.47&#10;  Q 185.75 395.67 193.69 390.36&#10;  C 198.40 387.20 203.79 385.10 208.04 381.23&#10;  C 212.21 377.44 216.88 374.10 221.58 371.09&#10;  C 226.48 367.94 230.92 363.65 235.12 360.54&#10;  Q 245.03 353.21 252.38 345.96&#10;  Q 256.38 342.02 260.54 338.83&#10;  Q 264.98 335.40 269.04 330.69&#10;  C 271.52 327.82 274.68 325.37 277.59 322.82&#10;  C 279.60 321.05 280.64 318.62 282.78 317.18&#10;  C 285.78 315.16 287.82 312.10 290.72 309.72&#10;  C 291.66 308.94 292.63 307.03 293.77 305.93&#10;  Q 297.95 301.87 301.49 297.48&#10;  C 303.91 294.49 306.85 292.13 309.08 288.98&#10;  C 311.34 285.77 314.51 283.37 316.90 280.12&#10;  Q 318.36 278.14 320.16 276.14&#10;  Q 320.84 275.37 321.54 274.59&#10;  Q 326.70 268.83 329.59 263.78&#10;  C 330.88 261.51 332.67 259.49 334.33 257.47&#10;  C 336.68 254.61 338.43 251.39 340.89 248.58&#10;  C 342.87 246.31 343.82 243.47 346.14 241.43&#10;  Q 348.12 239.69 349.68 237.35&#10;  Q 357.84 225.11 365.38 213.22&#10;  C 367.89 209.26 371.06 206.01 372.95 201.79&#10;  C 373.91 199.66 375.41 197.94 376.73 196.06&#10;  C 378.95 192.88 380.46 189.45 382.16 186.06&#10;  C 383.62 183.14 386.07 180.84 387.72 177.93&#10;  Q 392.57 169.42 396.27 162.52&#10;  Q 397.91 159.46 399.45 155.36&#10;  Q 400.94 151.38 403.20 148.49&#10;  Q 407.00 143.64 411.87 137.65&#10;  Q 414.16 134.82 416.65 132.65&#10;  C 419.90 129.80 423.25 127.80 426.70 125.46&#10;  C 430.11 123.14 433.99 121.61 437.60 119.66&#10;  C 439.88 118.44 442.45 117.99 444.89 117.10&#10;  C 447.04 116.31 449.45 116.39 451.70 116.54&#10;  Q 452.35 116.58 452.49 115.94&#10;  C 453.49 111.31 451.29 108.59 447.80 106.12&#10;  C 446.02 104.86 443.93 104.97 442.02 105.79" data-c-stroke="fac484"/>
<path stroke="#fec272" d="&#10;  M 442.02 105.79&#10;  Q 440.59 105.75 440.46 105.00&#10;  Q 440.09 102.94 438.03 103.20" data-c-stroke="fec272"/>
<path stroke="#fad598" d="&#10;  M 442.02 105.79&#10;  Q 438.42 108.17 434.39 109.44&#10;  C 431.12 110.46 427.44 112.41 424.71 114.42&#10;  C 421.34 116.91 417.62 118.33 414.38 120.96&#10;  Q 407.82 126.29 402.02 132.62&#10;  C 400.01 134.81 398.58 137.32 397.00 139.84&#10;  C 394.63 143.62 393.30 147.72 391.07 151.60&#10;  C 390.20 153.10 388.79 153.98 387.58 155.16&#10;  Q 386.19 156.52 385.34 158.26&#10;  Q 383.51 161.98 381.38 165.45&#10;  Q 379.36 168.73 377.64 172.60&#10;  Q 375.76 176.85 372.49 181.72&#10;  Q 371.14 183.74 370.59 185.89&#10;  Q 370.06 187.96 368.93 189.66&#10;  Q 367.76 191.41 367.39 193.20&#10;  Q 366.75 196.32 365.93 199.05&#10;  Q 365.45 200.64 364.44 201.89&#10;  Q 363.28 203.31 362.85 205.09&#10;  A 1.89 1.88 -13.9 0 1 362.27 206.05&#10;  L 359.88 208.09&#10;  Q 359.48 208.43 359.37 208.93&#10;  Q 358.97 210.67 357.36 211.48&#10;  Q 356.89 211.71 356.61 212.16&#10;  Q 353.99 216.39 351.05 220.85&#10;  Q 350.42 221.80 350.23 222.89&#10;  C 349.91 224.76 348.26 225.45 347.16 226.76&#10;  Q 342.71 232.04 338.79 238.56&#10;  C 337.77 240.26 335.94 241.06 335.00 242.74&#10;  C 333.23 245.89 330.47 248.06 328.63 251.05&#10;  Q 325.10 256.82 320.92 261.67&#10;  Q 320.11 262.62 319.48 263.74&#10;  C 318.44 265.60 317.42 267.40 315.96 268.93&#10;  C 313.05 271.98 310.53 275.29 307.53 278.19&#10;  Q 305.23 280.42 303.15 283.00&#10;  C 300.29 286.55 297.09 289.75 294.09 293.19&#10;  Q 291.86 295.75 289.04 298.10&#10;  Q 276.26 308.79 263.90 321.45&#10;  Q 260.66 324.77 257.00 327.31&#10;  Q 247.28 334.05 238.57 342.24&#10;  C 236.53 344.16 234.17 345.56 232.26 347.55&#10;  Q 230.17 349.72 227.94 351.62&#10;  Q 215.94 361.81 203.77 370.38&#10;  C 202.33 371.40 201.09 372.64 199.60 373.59&#10;  Q 194.27 377.01 189.67 380.42&#10;  Q 185.31 383.66 180.16 386.64&#10;  Q 168.66 393.30 157.44 399.55&#10;  Q 153.26 401.88 148.56 404.41&#10;  Q 141.51 408.19 139.92 409.67&#10;  Q 133.78 415.33 126.70 419.66&#10;  Q 124.32 421.10 122.75 423.34&#10;  C 119.73 427.66 115.44 431.16 112.96 435.78&#10;  C 111.04 439.34 109.10 442.38 107.67 446.28&#10;  Q 105.55 452.05 104.82 455.30&#10;  C 103.73 460.18 102.07 465.11 101.77 469.84&#10;  Q 101.32 476.83 102.04 483.69" data-c-stroke="fad598"/>
<path stroke="#887a82" d="&#10;  M 367.31 114.94&#10;  C 368.39 112.03 370.84 109.04 372.93 106.80&#10;  Q 377.54 101.83 382.34 97.04&#10;  C 385.19 94.20 388.99 92.20 391.44 88.99&#10;  A 0.28 0.28 0.0 0 0 391.32 88.56&#10;  Q 386.53 86.82 382.54 85.91&#10;  Q 369.13 82.87 354.34 79.86&#10;  C 350.17 79.01 346.05 77.77 341.73 77.53&#10;  Q 337.16 77.27 332.87 76.29&#10;  Q 332.11 76.12 332.63 76.70&#10;  Q 336.64 81.13 340.72 85.42&#10;  C 342.92 87.73 344.68 90.35 346.90 92.62&#10;  C 351.56 97.38 355.52 102.91 359.93 107.86&#10;  C 361.09 109.16 362.57 109.88 363.51 111.43&#10;  Q 364.73 113.45 366.53 115.12&#10;  Q 367.06 115.62 367.31 114.94" data-c-stroke="887a82"/>
<path stroke="#887a82" d="&#10;  M 213.68 91.31&#10;  Q 207.96 93.51 202.72 95.51&#10;  Q 198.74 97.04 192.15 100.65&#10;  Q 185.42 104.34 178.43 108.12&#10;  C 175.64 109.62 173.48 111.84 170.67 113.43&#10;  Q 167.67 115.14 164.76 116.87&#10;  C 160.90 119.17 157.45 122.06 153.67 124.53&#10;  C 150.20 126.79 147.25 129.89 143.83 132.34&#10;  C 140.85 134.47 138.34 137.21 135.70 139.79&#10;  Q 135.30 140.18 135.54 140.69&#10;  C 135.97 141.56 136.31 142.31 136.44 143.30&#10;  Q 137.96 155.13 141.13 164.54&#10;  Q 143.38 171.20 144.83 177.28&#10;  C 146.25 183.24 148.47 188.58 149.64 194.69&#10;  Q 150.08 197.01 151.30 199.20&#10;  A 0.51 0.51 0.0 0 0 152.07 199.34&#10;  Q 157.43 194.70 163.50 190.46&#10;  C 166.03 188.70 168.02 186.64 170.83 185.17&#10;  C 172.63 184.24 173.87 182.46 175.73 181.44&#10;  C 182.42 177.75 187.57 172.43 193.77 167.77&#10;  C 200.52 162.69 207.10 157.08 213.67 151.58&#10;  Q 215.59 149.98 217.24 148.28&#10;  C 219.99 145.48 223.24 143.51 225.61 140.45&#10;  C 228.19 137.11 232.03 135.33 234.78 131.98&#10;  Q 237.51 128.66 240.74 126.33&#10;  Q 242.84 124.82 244.51 122.60&#10;  Q 247.27 118.92 250.99 115.76&#10;  Q 252.32 114.63 253.51 113.04&#10;  C 255.42 110.48 257.38 107.95 259.71 105.77&#10;  Q 264.05 101.72 267.77 96.55&#10;  Q 268.99 94.86 270.78 93.68&#10;  C 273.56 91.84 273.91 88.49 276.29 86.33&#10;  Q 280.66 82.36 283.79 77.08&#10;  A 0.23 0.23 0.0 0 0 283.61 76.74&#10;  C 280.94 76.57 278.60 77.33 275.96 77.35&#10;  Q 267.14 77.40 258.04 79.18&#10;  Q 243.85 81.94 231.88 85.17&#10;  Q 228.23 86.15 224.31 87.61&#10;  C 220.79 88.91 217.22 89.95 213.68 91.31" data-c-stroke="887a82"/>
<path stroke="#887a82" d="&#10;  M 173.74 254.87&#10;  Q 175.29 257.72 176.49 260.88&#10;  C 177.70 264.04 179.66 266.60 181.04 269.63&#10;  C 183.69 275.48 186.18 281.18 189.53 286.80&#10;  C 192.26 291.40 194.87 296.22 197.81 300.86&#10;  Q 203.16 309.33 208.30 318.07&#10;  A 0.66 0.66 0.0 0 0 209.24 318.28&#10;  Q 210.82 317.18 212.24 315.99&#10;  Q 220.42 309.12 229.58 300.82&#10;  C 231.13 299.41 232.99 298.31 234.39 296.74&#10;  Q 235.96 294.98 237.69 293.43&#10;  Q 244.52 287.30 251.17 280.62&#10;  C 252.94 278.84 253.84 276.73 255.60 275.01&#10;  Q 260.20 270.51 265.07 265.84&#10;  C 267.73 263.29 269.26 260.35 271.74 257.72&#10;  Q 274.41 254.89 276.97 251.65&#10;  Q 285.08 241.38 293.75 232.09&#10;  Q 296.06 229.62 302.16 219.22&#10;  C 303.69 216.61 306.03 214.60 307.83 211.89&#10;  Q 311.14 206.89 313.68 202.51&#10;  Q 315.53 199.31 318.33 195.97&#10;  Q 320.92 192.88 323.11 189.23&#10;  Q 328.43 180.35 333.96 171.90&#10;  C 335.94 168.87 337.46 165.62 339.23 162.46&#10;  Q 345.74 150.86 352.21 139.77&#10;  C 353.65 137.30 353.83 134.55 356.00 132.60&#10;  Q 356.49 132.17 356.00 131.73&#10;  C 354.71 130.56 354.29 129.02 353.04 127.73&#10;  Q 350.55 125.15 348.07 123.01&#10;  C 345.80 121.05 344.11 118.63 342.03 116.43&#10;  Q 339.81 114.08 337.60 111.40&#10;  C 332.04 104.65 326.00 98.23 320.53 90.84&#10;  C 317.20 86.34 312.80 83.08 310.10 78.71&#10;  Q 309.79 78.22 309.26 78.46&#10;  C 305.33 80.23 302.69 84.41 299.96 87.61&#10;  C 298.63 89.18 298.27 91.16 296.80 92.63&#10;  C 294.36 95.06 292.66 98.07 290.18 100.36&#10;  Q 285.88 104.35 282.69 109.09&#10;  C 280.79 111.91 278.43 114.05 276.14 116.45&#10;  Q 273.80 118.90 271.27 121.92&#10;  Q 267.19 126.80 262.58 131.75&#10;  C 259.39 135.18 255.45 137.46 252.66 141.32&#10;  Q 250.90 143.74 248.52 145.37&#10;  C 246.21 146.95 244.97 149.52 242.73 151.29&#10;  C 237.42 155.49 232.97 160.37 227.60 164.49&#10;  C 221.20 169.40 216.43 176.27 209.90 180.43&#10;  Q 206.54 182.56 203.69 185.12&#10;  Q 200.11 188.34 195.64 191.09&#10;  Q 188.52 195.49 183.55 200.41&#10;  C 179.76 204.17 174.58 206.02 171.02 209.85&#10;  Q 169.20 211.82 167.04 213.16&#10;  Q 162.78 215.81 158.58 218.68&#10;  Q 157.09 219.71 158.47 220.89&#10;  C 159.52 221.79 160.27 223.05 160.76 224.34&#10;  C 162.89 230.04 164.88 236.46 167.98 241.75&#10;  C 170.42 245.91 171.44 250.63 173.74 254.87" data-c-stroke="887a82"/>
<path stroke="#887a82" d="&#10;  M 82.87 208.74&#10;  C 81.53 211.65 79.84 214.26 78.77 217.31&#10;  Q 75.38 226.98 71.29 236.90&#10;  C 67.69 245.60 65.75 254.77 63.43 264.06&#10;  Q 62.94 266.00 64.45 264.69&#10;  Q 68.59 261.10 73.92 257.53&#10;  C 77.48 255.13 79.95 251.83 83.45 249.27&#10;  Q 92.63 242.58 100.73 237.37&#10;  C 106.69 233.53 111.84 228.71 117.75 225.02&#10;  Q 120.67 223.20 122.76 221.03&#10;  Q 125.91 217.75 131.35 214.83&#10;  Q 133.20 213.83 134.06 212.26&#10;  Q 134.28 211.87 134.20 211.43&#10;  Q 133.31 206.21 131.37 201.65&#10;  Q 129.87 198.11 128.62 193.74&#10;  C 127.27 189.04 125.62 184.62 124.48 179.86&#10;  C 123.71 176.60 122.14 173.79 121.56 170.43&#10;  Q 120.40 163.69 118.40 157.41&#10;  Q 117.88 155.76 117.18 157.34&#10;  C 116.43 159.05 115.66 160.70 114.34 162.07&#10;  Q 108.43 168.20 103.55 176.31&#10;  C 101.72 179.35 98.90 181.18 97.13 184.31&#10;  Q 93.37 191.00 89.53 197.92&#10;  Q 88.38 200.00 86.59 201.85&#10;  C 84.50 204.01 84.04 206.22 82.87 208.74" data-c-stroke="887a82"/>
<path stroke="#887a82" d="&#10;  M 172.12 187.68&#10;  L 168.29 192.15&#10;  A 0.12 0.12 0.0 0 0 168.31 192.32&#10;  L 168.35 192.36&#10;  A 2.87 1.28 -49.4 0 0 171.19 191.01&#10;  L 171.44 190.72&#10;  A 2.87 1.28 -49.4 0 0 172.33 187.71&#10;  L 172.29 187.67&#10;  A 0.12 0.12 0.0 0 0 172.12 187.68" data-c-stroke="887a82"/>
<path stroke="#887a82" d="&#10;  M 159.85 273.70&#10;  Q 157.16 267.23 153.96 260.90&#10;  Q 151.03 255.13 149.42 250.75&#10;  Q 147.50 245.51 145.50 240.49&#10;  C 144.34 237.57 143.72 234.56 142.80 231.58&#10;  Q 142.32 230.02 141.01 230.99&#10;  Q 135.90 234.76 131.24 237.96&#10;  Q 125.99 241.59 121.60 244.94&#10;  C 117.16 248.34 112.36 250.94 108.27 254.76&#10;  Q 103.80 258.94 98.90 262.33&#10;  Q 79.03 276.06 62.16 290.94&#10;  C 59.88 292.96 56.65 293.16 56.54 297.01&#10;  Q 56.08 313.25 56.32 328.49&#10;  C 56.42 335.11 57.06 341.89 57.70 348.40&#10;  C 58.29 354.35 60.52 360.78 61.33 367.30&#10;  Q 61.83 371.31 63.20 374.87&#10;  Q 64.78 378.98 65.38 383.96&#10;  C 65.79 387.40 67.53 390.11 68.35 393.36&#10;  Q 69.19 396.70 70.55 400.26&#10;  Q 73.95 409.17 77.21 418.75&#10;  A 1.22 1.21 -37.5 0 0 79.37 419.03&#10;  C 81.11 416.43 83.45 414.47 84.75 411.64&#10;  Q 86.98 406.82 89.52 404.07&#10;  Q 92.36 401.00 95.87 397.64&#10;  C 97.20 396.36 97.39 394.08 99.06 393.26&#10;  Q 100.67 392.47 102.01 391.29&#10;  Q 109.97 384.19 118.50 378.43&#10;  C 120.18 377.30 122.23 376.57 124.05 375.47&#10;  Q 137.86 367.14 151.67 358.98&#10;  Q 153.13 358.11 154.62 357.10&#10;  Q 155.74 356.35 156.91 355.73&#10;  Q 165.18 351.34 171.71 346.60&#10;  C 175.19 344.09 179.09 342.24 182.20 339.23&#10;  C 185.20 336.34 189.45 337.03 190.90 332.46&#10;  Q 191.06 331.94 190.86 331.45&#10;  Q 188.75 326.29 185.82 321.70&#10;  Q 185.04 320.48 184.36 318.82&#10;  C 182.52 314.27 178.82 310.50 176.71 305.93&#10;  Q 171.92 295.61 166.64 287.25&#10;  C 165.04 284.71 164.27 282.04 162.76 279.53&#10;  Q 161.20 276.94 159.85 273.70" data-c-stroke="887a82"/>
<path stroke="#887a82" d="&#10;  M 402.21 472.33&#10;  Q 403.44 474.74 405.19 477.12&#10;  Q 407.15 479.79 408.05 481.93&#10;  C 409.32 484.92 410.83 487.63 411.91 490.64&#10;  Q 413.30 494.50 415.19 498.31&#10;  C 416.63 501.20 417.63 504.25 418.92 507.24&#10;  Q 420.25 510.31 421.47 514.11&#10;  Q 423.99 521.95 426.98 529.45&#10;  A 0.60 0.60 0.0 0 0 427.84 529.75&#10;  Q 435.73 525.17 442.75 521.22&#10;  Q 446.35 519.19 449.78 516.57&#10;  Q 455.89 511.90 462.25 508.03&#10;  C 464.45 506.69 464.96 504.15 467.18 502.69&#10;  C 470.03 500.82 472.24 498.21 474.90 496.05&#10;  Q 483.53 489.04 488.91 483.03&#10;  Q 490.99 480.70 495.94 473.61&#10;  Q 497.09 471.96 498.43 470.87&#10;  C 501.26 468.57 503.33 464.88 505.29 461.81&#10;  C 506.57 459.80 508.54 458.60 509.84 456.53&#10;  Q 511.87 453.29 513.42 450.15&#10;  C 515.34 446.24 518.26 443.42 520.01 439.36&#10;  Q 521.23 436.55 522.90 433.51&#10;  Q 527.38 425.37 530.99 416.74&#10;  Q 533.18 411.49 535.64 405.85&#10;  Q 537.86 400.76 539.80 394.78&#10;  C 540.47 392.73 540.57 390.53 541.37 388.50&#10;  Q 542.44 385.75 543.51 383.04&#10;  C 544.44 380.67 544.82 378.02 545.20 375.50&#10;  Q 545.62 372.74 546.67 370.07&#10;  Q 547.70 367.46 548.07 364.23&#10;  Q 548.83 357.72 549.85 350.82&#10;  C 550.42 346.92 550.29 343.12 551.16 339.47&#10;  C 551.72 337.14 551.27 334.81 551.69 332.55&#10;  Q 552.17 329.91 552.22 327.41&#10;  Q 552.42 316.71 552.27 306.24&#10;  C 552.26 305.10 551.70 304.16 551.72 303.06&#10;  Q 551.82 295.90 550.52 288.14" data-c-stroke="887a82"/>
<path stroke="#686274" d="&#10;  M 550.52 288.14&#10;  Q 550.71 286.99 550.22 284.26&#10;  Q 549.04 277.77 547.88 271.26&#10;  C 547.30 267.98 545.98 264.41 545.03 261.02&#10;  Q 544.58 259.44 543.56 257.96&#10;  Q 543.22 257.47 542.93 257.99&#10;  Q 539.24 264.58 535.17 271.21&#10;  C 534.12 272.92 533.46 274.72 532.35 276.40&#10;  Q 527.29 284.05 526.06 286.79&#10;  Q 521.66 296.59 515.46 305.29&#10;  C 512.39 309.61 510.19 314.12 507.39 318.59&#10;  C 505.85 321.04 503.35 322.69 502.36 325.35&#10;  Q 501.50 327.67 499.86 329.73&#10;  Q 496.19 334.37 492.98 339.45&#10;  C 490.76 342.97 488.36 346.34 486.01 349.75&#10;  C 482.41 354.96 478.26 359.40 474.54 364.30&#10;  Q 473.34 365.88 472.35 367.67&#10;  C 471.09 369.96 468.88 371.67 467.03 373.48&#10;  C 465.92 374.56 465.61 375.94 464.67 377.14&#10;  Q 460.41 382.66 455.18 387.39&#10;  Q 453.42 388.99 452.63 390.75&#10;  C 450.90 394.59 447.40 396.64 444.98 399.94&#10;  Q 443.08 402.52 440.64 404.94&#10;  Q 438.39 407.18 436.14 409.77&#10;  Q 431.62 414.95 426.68 419.40&#10;  C 423.76 422.02 421.51 425.07 418.72 427.69&#10;  C 412.14 433.85 406.11 440.60 399.55 446.78&#10;  C 396.85 449.32 394.23 451.00 392.36 454.36&#10;  A 1.01 1.00 44.7 0 0 392.37 455.34&#10;  L 402.21 472.33" data-c-stroke="686274"/>
<path stroke="#dec6cb" d="&#10;  M 550.52 288.14&#10;  Q 547.47 292.52 543.33 291.32&#10;  A 0.75 0.74 17.7 0 1 542.83 290.36&#10;  L 544.75 284.89&#10;  A 0.69 0.69 0.0 0 0 544.41 284.05&#10;  L 544.04 283.87&#10;  A 0.43 0.43 0.0 0 0 543.42 284.20&#10;  C 543.08 287.40 542.20 292.33 539.83 294.70&#10;  Q 539.41 295.12 539.31 295.71&#10;  Q 538.86 298.22 537.34 301.01&#10;  Q 536.88 301.83 536.97 300.90&#10;  Q 537.15 298.95 537.71 297.19&#10;  Q 537.77 296.99 537.58 296.92&#10;  L 537.57 296.91&#10;  Q 537.37 296.84 537.29 297.03&#10;  Q 536.11 299.63 535.12 302.21&#10;  Q 534.14 304.77 532.56 307.23&#10;  Q 530.16 310.97 528.86 315.65&#10;  Q 528.11 318.35 526.64 320.68&#10;  Q 522.02 327.98 517.43 335.01&#10;  C 514.34 339.76 511.75 344.85 508.09 349.30&#10;  C 505.57 352.38 503.84 356.00 501.17 358.93&#10;  C 498.58 361.79 496.91 365.26 494.47 368.08&#10;  Q 490.43 372.78 488.16 377.34&#10;  C 486.53 380.60 483.34 382.93 481.05 385.81&#10;  Q 477.10 390.76 473.12 395.81&#10;  Q 471.43 397.94 469.46 400.07&#10;  Q 467.49 402.19 466.03 404.33&#10;  Q 462.63 409.27 458.12 413.46&#10;  C 455.32 416.06 453.95 419.50 450.98 422.14&#10;  Q 448.32 424.52 445.90 427.31&#10;  C 441.08 432.90 435.24 437.64 430.55 443.31&#10;  Q 429.26 444.87 427.33 446.56&#10;  Q 423.34 450.04 417.99 456.25&#10;  Q 415.34 459.34 411.44 462.02&#10;  Q 410.07 462.96 407.31 467.25&#10;  Q 405.87 469.47 402.21 472.33" data-c-stroke="dec6cb"/>
<path stroke="#887a82" d="&#10;  M 288.55 558.78&#10;  Q 291.57 559.49 295.50 559.50&#10;  Q 304.71 559.52 314.06 559.33&#10;  C 326.39 559.08 338.53 556.61 350.66 555.23&#10;  C 353.45 554.92 355.93 553.82 358.80 553.63&#10;  Q 365.65 553.19 371.04 551.69&#10;  Q 375.47 550.46 380.35 549.23&#10;  Q 385.52 547.92 390.20 546.03&#10;  Q 399.13 542.43 408.31 538.47&#10;  A 1.31 1.31 0.0 0 0 409.09 537.07&#10;  C 408.72 534.71 408.57 532.74 407.51 530.45&#10;  Q 405.63 526.40 403.77 522.19&#10;  Q 402.16 518.54 400.38 513.78&#10;  Q 396.76 504.03 394.12 497.87&#10;  Q 392.13 493.22 388.38 487.52" data-c-stroke="887a82"/>
<path stroke="#686274" d="&#10;  M 388.38 487.52&#10;  C 386.99 483.60 384.63 479.99 382.99 476.45&#10;  Q 380.76 471.64 377.93 467.70&#10;  Q 377.64 467.30 377.19 467.51&#10;  C 373.48 469.25 371.55 472.61 368.52 475.18&#10;  C 363.98 479.03 359.26 482.65 354.73 486.50&#10;  Q 349.07 491.32 342.93 495.78&#10;  C 336.50 500.45 330.38 505.68 324.28 510.76&#10;  C 321.00 513.50 316.51 514.06 313.91 517.97&#10;  Q 312.78 519.67 311.05 520.64&#10;  Q 304.63 524.23 299.12 528.73&#10;  C 295.97 531.30 292.58 533.08 289.38 535.58&#10;  Q 286.75 537.63 283.35 539.66&#10;  Q 280.26 541.51 277.18 543.63&#10;  Q 269.00 549.27 259.92 554.16&#10;  Q 258.98 554.66 259.79 555.72&#10;  A 1.38 1.37 75.8 0 0 260.65 556.24&#10;  Q 275.11 558.85 288.55 558.78" data-c-stroke="686274"/>
<path stroke="#dec6cb" d="&#10;  M 388.38 487.52&#10;  Q 382.91 493.22 380.79 494.57&#10;  Q 375.57 497.91 371.25 502.22&#10;  C 365.58 507.88 358.40 511.86 352.67 517.11&#10;  C 347.20 522.12 340.93 526.10 334.71 530.30&#10;  C 330.10 533.41 326.03 537.29 321.02 540.06&#10;  C 314.81 543.49 308.81 547.39 302.59 550.86&#10;  Q 302.49 550.92 295.78 555.12&#10;  Q 292.58 557.12 288.55 558.78" data-c-stroke="dec6cb"/>
</g>
<path fill="#12162a" d="&#10;  M 557.68 154.01&#10;  Q 557.95 156.66 558.72 159.24&#10;  Q 559.71 162.57 559.92 164.38&#10;  C 560.42 168.45 560.52 171.92 561.26 176.47&#10;  C 562.04 181.26 561.64 186.24 561.57 191.12&#10;  Q 561.54 193.63 560.96 195.87&#10;  C 560.08 199.33 560.83 202.49 559.84 206.13&#10;  Q 558.76 210.14 558.02 214.32&#10;  Q 557.60 216.68 558.26 218.48&#10;  Q 559.86 222.89 561.33 227.04&#10;  C 562.42 230.13 563.98 232.93 565.39 235.93&#10;  Q 565.64 238.97 566.68 242.07&#10;  Q 567.98 245.94 568.34 248.06&#10;  Q 569.62 255.42 571.19 262.82&#10;  Q 572.00 266.61 572.36 270.74&#10;  C 572.90 277.07 574.22 283.29 575.62 289.55&#10;  Q 576.28 292.53 576.34 295.84&#10;  C 576.39 298.64 577.03 301.23 577.05 304.07&#10;  Q 577.09 311.67 577.12 319.66&#10;  Q 577.13 324.37 576.68 329.77&#10;  Q 576.24 334.98 576.32 340.02&#10;  C 576.36 342.11 575.70 344.01 575.50 346.02&#10;  Q 575.04 350.58 574.27 354.71&#10;  Q 573.48 358.96 572.83 363.37&#10;  Q 571.12 374.90 568.51 385.93&#10;  Q 567.52 390.14 566.06 393.85&#10;  C 564.69 397.36 564.18 401.06 562.94 404.75&#10;  Q 557.00 422.39 549.65 438.06&#10;  C 546.70 444.35 542.79 449.95 539.68 456.05&#10;  C 538.37 458.62 536.12 460.48 534.59 462.85&#10;  Q 526.39 475.52 520.17 483.93&#10;  Q 509.04 498.97 493.90 512.91&#10;  C 489.91 516.58 486.69 521.23 482.08 523.82&#10;  C 477.55 526.36 474.49 530.35 470.33 533.39&#10;  Q 458.27 542.22 448.27 548.04&#10;  Q 440.51 552.57 434.40 555.21&#10;  Q 431.84 556.32 429.24 557.80&#10;  C 424.94 560.24 420.47 561.91 415.98 563.78&#10;  C 412.94 565.05 410.27 566.99 407.25 567.91&#10;  C 399.57 570.25 391.87 573.06 384.04 575.44&#10;  C 378.97 576.98 373.83 577.53 368.70 579.12&#10;  Q 365.92 579.99 363.01 580.19&#10;  Q 353.40 580.84 343.48 583.30&#10;  Q 341.22 583.86 338.82 583.68&#10;  C 336.58 583.52 334.44 584.13 332.16 584.21&#10;  Q 324.64 584.50 317.92 584.51&#10;  Q 312.21 584.52 304.61 585.06&#10;  Q 298.06 585.51 291.25 585.19&#10;  C 289.20 585.09 287.33 584.54 285.27 584.51&#10;  C 279.57 584.43 274.02 584.53 268.55 583.74&#10;  Q 259.62 582.47 250.17 580.96&#10;  Q 247.09 580.47 243.51 580.50&#10;  Q 239.68 580.53 236.52 580.44&#10;  L 220.27 574.56&#10;  Q 219.69 574.35 219.10 574.53&#10;  C 216.56 575.29 214.37 576.65 211.70 577.45&#10;  Q 208.84 578.32 205.60 579.57&#10;  Q 203.11 580.53 197.92 580.67&#10;  C 196.34 580.71 194.89 581.41 193.31 581.47&#10;  Q 185.52 581.78 177.66 582.00&#10;  C 175.82 582.05 174.09 582.56 172.28 582.89&#10;  Q 167.86 581.21 163.07 580.49&#10;  Q 159.16 579.91 156.55 579.03&#10;  C 153.50 577.99 150.26 577.24 147.41 575.87&#10;  Q 146.12 575.26 144.68 574.71&#10;  Q 143.73 574.34 142.37 574.11&#10;  L 134.52 571.23&#10;  A 0.55 0.55 0.0 0 0 133.79 571.67&#10;  Q 133.16 576.16 132.47 581.05&#10;  C 131.82 585.75 129.56 589.49 129.42 594.44&#10;  Q 129.30 598.66 127.48 601.82&#10;  Q 124.99 606.15 123.42 611.14&#10;  C 122.58 613.81 121.33 616.47 119.11 618.24&#10;  C 117.31 619.67 115.08 621.12 113.83 623.10&#10;  Q 112.94 624.50 111.76 625.24&#10;  Q 106.42 628.58 98.72 630.00&#10;  L 73.60 630.00&#10;  Q 65.52 628.28 59.87 622.02&#10;  C 57.96 619.90 55.53 617.62 53.04 616.55&#10;  C 49.14 614.86 47.83 611.78 44.63 609.38&#10;  Q 40.68 606.40 36.61 604.06&#10;  C 33.34 602.18 31.94 598.65 28.64 596.73&#10;  C 25.02 594.62 22.76 591.18 19.32 588.61&#10;  Q 11.87 583.03 7.23 573.60&#10;  Q 4.99 569.04 3.25 562.35&#10;  C 1.37 555.10 1.03 547.12 2.65 539.85&#10;  Q 5.55 526.91 13.35 517.16&#10;  Q 15.40 514.60 17.79 512.75&#10;  C 20.11 510.97 22.20 509.01 24.72 507.45&#10;  Q 34.90 501.16 44.43 497.93&#10;  Q 52.41 495.23 55.03 494.13&#10;  Q 59.92 492.08 65.34 489.91&#10;  A 1.29 1.29 0.0 0 0 66.13 488.99&#10;  Q 66.72 486.52 66.42 484.10&#10;  Q 64.74 470.27 67.29 456.72&#10;  Q 67.68 454.68 67.06 452.69&#10;  C 65.76 448.48 63.31 445.99 61.38 442.31&#10;  Q 51.46 423.35 47.38 409.85&#10;  Q 44.02 398.74 39.89 385.88&#10;  C 38.54 381.69 37.49 377.57 36.90 373.17&#10;  Q 35.92 365.90 34.34 355.75&#10;  Q 32.20 342.01 31.91 326.27&#10;  Q 31.83 322.01 31.70 317.75&#10;  Q 31.57 313.31 31.86 308.77&#10;  C 32.09 305.08 32.10 301.43 32.43 297.63&#10;  Q 32.79 293.51 33.09 289.61&#10;  Q 33.75 281.08 36.08 269.24&#10;  C 37.18 263.65 37.49 257.46 38.83 252.06&#10;  Q 40.22 246.47 42.55 241.83&#10;  C 44.54 237.86 44.97 233.76 46.37 229.75&#10;  Q 48.81 222.73 51.70 215.03&#10;  Q 54.06 208.73 57.70 201.97&#10;  C 61.16 195.53 64.13 188.96 68.19 182.86&#10;  Q 73.55 174.80 78.36 167.10&#10;  Q 82.69 160.18 89.31 151.86&#10;  Q 96.60 142.70 102.11 136.82&#10;  Q 107.47 131.10 113.26 125.05&#10;  Q 115.39 122.82 117.72 121.10&#10;  C 120.98 118.68 123.58 115.66 126.91 113.07&#10;  C 130.12 110.58 132.45 107.16 136.22 105.32&#10;  Q 139.41 103.76 142.11 101.18&#10;  Q 146.47 97.01 151.15 94.15&#10;  Q 161.69 87.71 173.11 81.22&#10;  Q 179.91 77.36 186.19 74.69&#10;  C 192.18 72.14 197.97 69.30 204.03 67.03&#10;  Q 217.55 61.98 228.88 58.73&#10;  Q 232.76 57.62 245.27 55.26&#10;  Q 253.84 53.64 261.44 52.97&#10;  Q 272.91 51.95 283.98 50.79&#10;  Q 292.52 49.90 300.49 49.95&#10;  Q 308.58 49.99 317.45 49.98&#10;  Q 320.00 49.98 322.51 50.38&#10;  C 324.87 50.75 327.16 50.74 329.49 51.26&#10;  Q 332.44 51.91 335.50 51.74&#10;  C 337.87 51.61 339.99 52.54 342.33 52.60&#10;  Q 349.83 52.79 357.82 54.34&#10;  Q 363.78 55.49 370.01 56.60&#10;  Q 380.77 58.52 390.92 62.13&#10;  Q 395.84 63.87 399.88 64.99&#10;  C 407.35 67.03 414.45 70.61 421.59 73.36&#10;  C 425.13 74.72 428.01 72.94 431.52 72.81&#10;  Q 435.02 72.69 438.52 72.20&#10;  C 443.28 71.54 448.16 71.71 452.99 71.80&#10;  C 456.93 71.88 461.03 72.60 464.82 73.52&#10;  A 1.87 1.86 -78.7 0 0 467.11 71.98&#10;  Q 467.53 69.20 467.56 66.98&#10;  Q 467.66 58.75 467.97 50.27&#10;  Q 468.02 48.88 468.15 47.35&#10;  Q 469.39 32.60 476.89 20.60&#10;  Q 479.07 17.13 482.14 14.83&#10;  C 486.66 11.45 490.41 7.53 495.81 5.37&#10;  Q 501.00 3.28 507.68 1.93&#10;  Q 510.01 1.46 516.17 1.67&#10;  C 522.87 1.89 529.96 5.06 535.43 8.54&#10;  Q 547.80 16.42 558.04 25.99&#10;  C 561.38 29.10 565.30 30.85 568.57 33.86&#10;  Q 576.95 41.58 585.83 48.51&#10;  Q 589.47 51.34 591.61 54.30&#10;  C 595.16 59.21 597.21 64.79 599.04 70.64&#10;  Q 601.30 77.89 600.24 84.48&#10;  Q 599.80 87.26 599.51 89.98&#10;  C 598.96 95.11 597.04 100.32 594.94 104.98&#10;  C 593.46 108.27 590.62 111.39 587.79 113.71&#10;  Q 581.76 118.65 576.18 122.26&#10;  Q 571.63 125.21 559.67 129.39&#10;  C 556.34 130.55 553.79 132.64 550.51 133.72&#10;  A 1.54 1.53 -21.3 0 0 549.59 135.80&#10;  L 557.68 154.01&#10;  Z&#10;  M 496.77 65.50&#10;  Q 495.98 77.85 493.87 90.44&#10;  Q 492.82 96.74 491.03 100.67&#10;  Q 488.47 106.27 486.40 112.01&#10;  Q 486.12 112.80 485.49 112.25&#10;  C 481.28 108.58 475.81 105.50 470.20 104.55&#10;  Q 467.51 104.10 464.78 103.46&#10;  Q 461.26 102.64 457.66 102.36&#10;  Q 454.02 102.08 450.50 101.68&#10;  Q 446.25 101.19 438.03 103.20&#10;  C 428.84 104.22 417.24 108.94 410.09 114.41&#10;  C 403.94 119.12 397.09 124.78 392.81 131.03&#10;  Q 388.61 137.15 384.44 144.12&#10;  Q 382.36 147.58 380.83 151.11&#10;  Q 379.22 154.82 377.08 158.02&#10;  Q 373.30 163.66 370.22 169.51&#10;  Q 366.37 176.80 363.87 180.58&#10;  Q 361.04 184.87 358.11 189.79&#10;  C 355.45 194.25 351.89 197.73 349.76 202.53&#10;  Q 348.47 205.43 346.52 208.39&#10;  Q 344.53 211.39 342.56 213.89&#10;  C 339.27 218.05 337.84 222.84 334.45 226.89&#10;  C 332.48 229.24 331.54 232.06 329.28 234.22&#10;  Q 327.34 236.08 326.03 238.42&#10;  Q 323.87 242.28 319.77 246.11&#10;  Q 316.85 248.83 313.41 254.37&#10;  C 311.51 257.44 308.67 259.48 306.93 262.67&#10;  C 305.18 265.89 302.23 267.95 300.18 271.00&#10;  Q 296.01 277.19 289.36 283.82&#10;  C 285.24 287.92 281.70 292.65 277.85 296.42&#10;  C 271.47 302.66 265.72 309.46 259.01 315.24&#10;  Q 255.72 318.08 252.74 321.30&#10;  C 248.66 325.71 243.85 328.93 239.56 333.03&#10;  C 235.25 337.15 230.44 340.86 225.67 344.61&#10;  C 221.68 347.75 218.27 351.54 214.08 354.24&#10;  Q 209.65 357.10 205.41 360.57&#10;  C 200.96 364.21 196.08 366.85 191.65 370.23&#10;  Q 185.47 374.95 179.97 378.00&#10;  Q 175.81 380.31 172.27 382.94&#10;  Q 168.88 385.47 165.51 387.16&#10;  Q 159.56 390.15 153.76 393.54&#10;  C 151.23 395.02 148.38 395.95 146.02 397.61&#10;  Q 143.46 399.41 140.64 400.97&#10;  Q 133.57 404.90 127.08 409.39&#10;  C 122.89 412.30 119.40 416.25 115.73 419.78&#10;  Q 114.31 421.15 113.36 422.81&#10;  C 110.42 427.97 107.01 432.73 104.38 437.99&#10;  C 101.09 444.56 97.87 450.29 97.48 457.95&#10;  Q 97.21 463.42 96.80 469.50&#10;  Q 96.56 473.03 98.24 483.80&#10;  Q 99.71 490.35 101.16 496.95&#10;  C 101.82 499.94 100.68 503.37 104.28 504.84&#10;  Q 106.34 505.68 104.33 506.64&#10;  L 95.11 511.03&#10;  Q 91.53 512.38 87.18 513.63&#10;  C 84.71 514.34 82.99 515.75 80.76 516.73&#10;  Q 71.34 520.86 60.60 524.94&#10;  C 57.04 526.30 53.58 528.15 50.01 529.76&#10;  Q 44.58 532.20 38.76 535.51&#10;  C 34.22 538.09 32.90 542.96 31.72 547.56&#10;  Q 31.29 549.22 31.99 551.67&#10;  Q 32.47 553.37 32.93 555.57&#10;  Q 33.55 557.99 35.03 560.25&#10;  Q 37.01 563.28 40.20 566.30&#10;  Q 43.82 569.73 49.80 574.64&#10;  C 58.78 581.99 69.35 588.26 77.05 596.73&#10;  Q 79.68 599.61 82.95 600.34&#10;  Q 86.41 601.11 90.28 601.30&#10;  Q 95.13 601.53 96.97 597.09&#10;  Q 99.01 592.18 100.08 587.40&#10;  Q 103.56 571.79 107.05 556.21&#10;  Q 108.99 547.55 112.38 536.74&#10;  Q 113.34 533.68 114.29 526.59&#10;  Q 114.36 526.02 114.02 525.56&#10;  L 113.23 524.51&#10;  Q 112.31 523.30 113.60 524.10&#10;  C 118.30 526.98 122.59 530.31 127.40 533.05&#10;  Q 131.41 535.34 135.50 537.89&#10;  Q 144.66 543.59 156.41 547.52&#10;  C 160.74 548.97 165.13 549.32 169.48 550.42&#10;  Q 173.27 551.38 176.82 551.50&#10;  Q 182.33 551.69 184.51 551.36&#10;  Q 190.03 550.54 195.19 549.68&#10;  C 201.70 548.59 207.15 546.68 213.13 544.61&#10;  Q 216.73 543.36 220.37 541.35&#10;  Q 227.40 537.47 234.42 533.72&#10;  Q 238.57 531.50 243.04 528.45&#10;  C 248.76 524.54 255.23 521.55 260.99 516.99&#10;  C 264.76 514.00 269.76 512.31 273.70 509.02&#10;  C 276.70 506.51 280.31 504.54 283.56 502.21&#10;  Q 291.31 496.65 299.23 490.98&#10;  C 304.90 486.92 310.23 482.29 315.94 477.91&#10;  C 325.18 470.83 333.81 462.87 343.27 455.96&#10;  Q 345.21 454.55 346.95 452.07&#10;  Q 348.51 449.85 352.03 447.37&#10;  Q 357.62 443.43 363.70 437.20&#10;  C 367.36 433.46 371.71 430.68 375.46 426.97&#10;  Q 381.51 420.99 387.40 415.17&#10;  C 389.09 413.51 391.06 412.55 392.49 410.54&#10;  Q 395.03 406.97 398.24 404.47&#10;  C 400.77 402.50 402.02 399.77 404.60 398.01&#10;  C 408.15 395.61 410.79 391.26 413.39 387.91&#10;  C 414.61 386.34 416.12 385.31 417.74 384.21&#10;  C 419.15 383.26 419.74 381.89 420.62 380.52&#10;  C 422.53 377.52 425.60 375.15 427.82 372.32&#10;  C 430.66 368.68 434.05 366.01 436.82 362.37&#10;  C 439.69 358.61 442.86 355.00 445.69 351.14&#10;  C 447.34 348.89 449.61 347.33 451.15 344.85&#10;  Q 452.24 343.08 453.46 341.48&#10;  Q 463.29 328.48 472.01 315.81&#10;  C 473.39 313.81 474.37 311.66 475.83 309.65&#10;  Q 479.37 304.81 483.01 300.06&#10;  C 487.38 294.36 490.13 287.37 494.11 281.49&#10;  Q 497.77 276.06 500.91 269.99&#10;  C 502.18 267.53 503.99 265.46 505.05 262.95&#10;  C 506.78 258.86 509.72 255.19 511.40 251.33&#10;  C 513.94 245.50 517.17 240.66 519.85 235.03&#10;  Q 526.28 221.55 530.52 206.39&#10;  Q 532.48 199.41 532.64 192.93&#10;  Q 532.86 184.13 532.43 175.00&#10;  C 532.25 171.22 530.58 168.02 529.54 164.48&#10;  Q 528.45 160.77 526.72 156.69&#10;  Q 521.52 144.37 513.96 133.23&#10;  C 511.82 130.08 511.22 126.81 509.50 123.57&#10;  Q 509.18 122.97 509.76 122.59&#10;  C 511.14 121.69 512.50 120.92 513.66 119.72&#10;  C 515.86 117.45 518.58 114.14 521.82 113.43&#10;  Q 523.89 112.98 525.93 112.19&#10;  C 527.44 111.60 528.16 110.21 529.58 109.35&#10;  Q 535.11 106.01 537.78 105.26&#10;  Q 544.01 103.53 550.47 101.91&#10;  C 554.36 100.94 556.82 98.75 560.29 97.17&#10;  C 567.37 93.95 570.60 86.84 569.40 79.15&#10;  Q 568.81 75.39 565.72 71.01&#10;  Q 563.74 68.23 560.78 66.39&#10;  Q 555.52 63.14 552.20 59.74&#10;  Q 550.34 57.84 548.37 55.96&#10;  Q 546.65 54.32 544.11 52.65&#10;  Q 535.21 46.81 527.36 39.77&#10;  Q 523.53 36.90 519.92 34.09&#10;  C 517.05 31.87 509.52 29.96 505.86 33.04&#10;  Q 499.93 38.04 497.83 45.67&#10;  C 497.16 48.12 497.29 50.57 497.23 53.18&#10;  C 497.16 56.79 496.51 61.23 496.77 65.50&#10;  Z&#10;  M 367.31 114.94&#10;  C 368.39 112.03 370.84 109.04 372.93 106.80&#10;  Q 377.54 101.83 382.34 97.04&#10;  C 385.19 94.20 388.99 92.20 391.44 88.99&#10;  A 0.28 0.28 0.0 0 0 391.32 88.56&#10;  Q 386.53 86.82 382.54 85.91&#10;  Q 369.13 82.87 354.34 79.86&#10;  C 350.17 79.01 346.05 77.77 341.73 77.53&#10;  Q 337.16 77.27 332.87 76.29&#10;  Q 332.11 76.12 332.63 76.70&#10;  Q 336.64 81.13 340.72 85.42&#10;  C 342.92 87.73 344.68 90.35 346.90 92.62&#10;  C 351.56 97.38 355.52 102.91 359.93 107.86&#10;  C 361.09 109.16 362.57 109.88 363.51 111.43&#10;  Q 364.73 113.45 366.53 115.12&#10;  Q 367.06 115.62 367.31 114.94&#10;  Z&#10;  M 213.68 91.31&#10;  Q 207.96 93.51 202.72 95.51&#10;  Q 198.74 97.04 192.15 100.65&#10;  Q 185.42 104.34 178.43 108.12&#10;  C 175.64 109.62 173.48 111.84 170.67 113.43&#10;  Q 167.67 115.14 164.76 116.87&#10;  C 160.90 119.17 157.45 122.06 153.67 124.53&#10;  C 150.20 126.79 147.25 129.89 143.83 132.34&#10;  C 140.85 134.47 138.34 137.21 135.70 139.79&#10;  Q 135.30 140.18 135.54 140.69&#10;  C 135.97 141.56 136.31 142.31 136.44 143.30&#10;  Q 137.96 155.13 141.13 164.54&#10;  Q 143.38 171.20 144.83 177.28&#10;  C 146.25 183.24 148.47 188.58 149.64 194.69&#10;  Q 150.08 197.01 151.30 199.20&#10;  A 0.51 0.51 0.0 0 0 152.07 199.34&#10;  Q 157.43 194.70 163.50 190.46&#10;  C 166.03 188.70 168.02 186.64 170.83 185.17&#10;  C 172.63 184.24 173.87 182.46 175.73 181.44&#10;  C 182.42 177.75 187.57 172.43 193.77 167.77&#10;  C 200.52 162.69 207.10 157.08 213.67 151.58&#10;  Q 215.59 149.98 217.24 148.28&#10;  C 219.99 145.48 223.24 143.51 225.61 140.45&#10;  C 228.19 137.11 232.03 135.33 234.78 131.98&#10;  Q 237.51 128.66 240.74 126.33&#10;  Q 242.84 124.82 244.51 122.60&#10;  Q 247.27 118.92 250.99 115.76&#10;  Q 252.32 114.63 253.51 113.04&#10;  C 255.42 110.48 257.38 107.95 259.71 105.77&#10;  Q 264.05 101.72 267.77 96.55&#10;  Q 268.99 94.86 270.78 93.68&#10;  C 273.56 91.84 273.91 88.49 276.29 86.33&#10;  Q 280.66 82.36 283.79 77.08&#10;  A 0.23 0.23 0.0 0 0 283.61 76.74&#10;  C 280.94 76.57 278.60 77.33 275.96 77.35&#10;  Q 267.14 77.40 258.04 79.18&#10;  Q 243.85 81.94 231.88 85.17&#10;  Q 228.23 86.15 224.31 87.61&#10;  C 220.79 88.91 217.22 89.95 213.68 91.31&#10;  Z&#10;  M 173.74 254.87&#10;  Q 175.29 257.72 176.49 260.88&#10;  C 177.70 264.04 179.66 266.60 181.04 269.63&#10;  C 183.69 275.48 186.18 281.18 189.53 286.80&#10;  C 192.26 291.40 194.87 296.22 197.81 300.86&#10;  Q 203.16 309.33 208.30 318.07&#10;  A 0.66 0.66 0.0 0 0 209.24 318.28&#10;  Q 210.82 317.18 212.24 315.99&#10;  Q 220.42 309.12 229.58 300.82&#10;  C 231.13 299.41 232.99 298.31 234.39 296.74&#10;  Q 235.96 294.98 237.69 293.43&#10;  Q 244.52 287.30 251.17 280.62&#10;  C 252.94 278.84 253.84 276.73 255.60 275.01&#10;  Q 260.20 270.51 265.07 265.84&#10;  C 267.73 263.29 269.26 260.35 271.74 257.72&#10;  Q 274.41 254.89 276.97 251.65&#10;  Q 285.08 241.38 293.75 232.09&#10;  Q 296.06 229.62 302.16 219.22&#10;  C 303.69 216.61 306.03 214.60 307.83 211.89&#10;  Q 311.14 206.89 313.68 202.51&#10;  Q 315.53 199.31 318.33 195.97&#10;  Q 320.92 192.88 323.11 189.23&#10;  Q 328.43 180.35 333.96 171.90&#10;  C 335.94 168.87 337.46 165.62 339.23 162.46&#10;  Q 345.74 150.86 352.21 139.77&#10;  C 353.65 137.30 353.83 134.55 356.00 132.60&#10;  Q 356.49 132.17 356.00 131.73&#10;  C 354.71 130.56 354.29 129.02 353.04 127.73&#10;  Q 350.55 125.15 348.07 123.01&#10;  C 345.80 121.05 344.11 118.63 342.03 116.43&#10;  Q 339.81 114.08 337.60 111.40&#10;  C 332.04 104.65 326.00 98.23 320.53 90.84&#10;  C 317.20 86.34 312.80 83.08 310.10 78.71&#10;  Q 309.79 78.22 309.26 78.46&#10;  C 305.33 80.23 302.69 84.41 299.96 87.61&#10;  C 298.63 89.18 298.27 91.16 296.80 92.63&#10;  C 294.36 95.06 292.66 98.07 290.18 100.36&#10;  Q 285.88 104.35 282.69 109.09&#10;  C 280.79 111.91 278.43 114.05 276.14 116.45&#10;  Q 273.80 118.90 271.27 121.92&#10;  Q 267.19 126.80 262.58 131.75&#10;  C 259.39 135.18 255.45 137.46 252.66 141.32&#10;  Q 250.90 143.74 248.52 145.37&#10;  C 246.21 146.95 244.97 149.52 242.73 151.29&#10;  C 237.42 155.49 232.97 160.37 227.60 164.49&#10;  C 221.20 169.40 216.43 176.27 209.90 180.43&#10;  Q 206.54 182.56 203.69 185.12&#10;  Q 200.11 188.34 195.64 191.09&#10;  Q 188.52 195.49 183.55 200.41&#10;  C 179.76 204.17 174.58 206.02 171.02 209.85&#10;  Q 169.20 211.82 167.04 213.16&#10;  Q 162.78 215.81 158.58 218.68&#10;  Q 157.09 219.71 158.47 220.89&#10;  C 159.52 221.79 160.27 223.05 160.76 224.34&#10;  C 162.89 230.04 164.88 236.46 167.98 241.75&#10;  C 170.42 245.91 171.44 250.63 173.74 254.87&#10;  Z&#10;  M 82.87 208.74&#10;  C 81.53 211.65 79.84 214.26 78.77 217.31&#10;  Q 75.38 226.98 71.29 236.90&#10;  C 67.69 245.60 65.75 254.77 63.43 264.06&#10;  Q 62.94 266.00 64.45 264.69&#10;  Q 68.59 261.10 73.92 257.53&#10;  C 77.48 255.13 79.95 251.83 83.45 249.27&#10;  Q 92.63 242.58 100.73 237.37&#10;  C 106.69 233.53 111.84 228.71 117.75 225.02&#10;  Q 120.67 223.20 122.76 221.03&#10;  Q 125.91 217.75 131.35 214.83&#10;  Q 133.20 213.83 134.06 212.26&#10;  Q 134.28 211.87 134.20 211.43&#10;  Q 133.31 206.21 131.37 201.65&#10;  Q 129.87 198.11 128.62 193.74&#10;  C 127.27 189.04 125.62 184.62 124.48 179.86&#10;  C 123.71 176.60 122.14 173.79 121.56 170.43&#10;  Q 120.40 163.69 118.40 157.41&#10;  Q 117.88 155.76 117.18 157.34&#10;  C 116.43 159.05 115.66 160.70 114.34 162.07&#10;  Q 108.43 168.20 103.55 176.31&#10;  C 101.72 179.35 98.90 181.18 97.13 184.31&#10;  Q 93.37 191.00 89.53 197.92&#10;  Q 88.38 200.00 86.59 201.85&#10;  C 84.50 204.01 84.04 206.22 82.87 208.74&#10;  Z&#10;  M 172.12 187.68&#10;  L 168.29 192.15&#10;  A 0.12 0.12 0.0 0 0 168.31 192.32&#10;  L 168.35 192.36&#10;  A 2.87 1.28 -49.4 0 0 171.19 191.01&#10;  L 171.44 190.72&#10;  A 2.87 1.28 -49.4 0 0 172.33 187.71&#10;  L 172.29 187.67&#10;  A 0.12 0.12 0.0 0 0 172.12 187.68&#10;  Z&#10;  M 159.85 273.70&#10;  Q 157.16 267.23 153.96 260.90&#10;  Q 151.03 255.13 149.42 250.75&#10;  Q 147.50 245.51 145.50 240.49&#10;  C 144.34 237.57 143.72 234.56 142.80 231.58&#10;  Q 142.32 230.02 141.01 230.99&#10;  Q 135.90 234.76 131.24 237.96&#10;  Q 125.99 241.59 121.60 244.94&#10;  C 117.16 248.34 112.36 250.94 108.27 254.76&#10;  Q 103.80 258.94 98.90 262.33&#10;  Q 79.03 276.06 62.16 290.94&#10;  C 59.88 292.96 56.65 293.16 56.54 297.01&#10;  Q 56.08 313.25 56.32 328.49&#10;  C 56.42 335.11 57.06 341.89 57.70 348.40&#10;  C 58.29 354.35 60.52 360.78 61.33 367.30&#10;  Q 61.83 371.31 63.20 374.87&#10;  Q 64.78 378.98 65.38 383.96&#10;  C 65.79 387.40 67.53 390.11 68.35 393.36&#10;  Q 69.19 396.70 70.55 400.26&#10;  Q 73.95 409.17 77.21 418.75&#10;  A 1.22 1.21 -37.5 0 0 79.37 419.03&#10;  C 81.11 416.43 83.45 414.47 84.75 411.64&#10;  Q 86.98 406.82 89.52 404.07&#10;  Q 92.36 401.00 95.87 397.64&#10;  C 97.20 396.36 97.39 394.08 99.06 393.26&#10;  Q 100.67 392.47 102.01 391.29&#10;  Q 109.97 384.19 118.50 378.43&#10;  C 120.18 377.30 122.23 376.57 124.05 375.47&#10;  Q 137.86 367.14 151.67 358.98&#10;  Q 153.13 358.11 154.62 357.10&#10;  Q 155.74 356.35 156.91 355.73&#10;  Q 165.18 351.34 171.71 346.60&#10;  C 175.19 344.09 179.09 342.24 182.20 339.23&#10;  C 185.20 336.34 189.45 337.03 190.90 332.46&#10;  Q 191.06 331.94 190.86 331.45&#10;  Q 188.75 326.29 185.82 321.70&#10;  Q 185.04 320.48 184.36 318.82&#10;  C 182.52 314.27 178.82 310.50 176.71 305.93&#10;  Q 171.92 295.61 166.64 287.25&#10;  C 165.04 284.71 164.27 282.04 162.76 279.53&#10;  Q 161.20 276.94 159.85 273.70&#10;  Z&#10;  M 402.21 472.33&#10;  Q 403.44 474.74 405.19 477.12&#10;  Q 407.15 479.79 408.05 481.93&#10;  C 409.32 484.92 410.83 487.63 411.91 490.64&#10;  Q 413.30 494.50 415.19 498.31&#10;  C 416.63 501.20 417.63 504.25 418.92 507.24&#10;  Q 420.25 510.31 421.47 514.11&#10;  Q 423.99 521.95 426.98 529.45&#10;  A 0.60 0.60 0.0 0 0 427.84 529.75&#10;  Q 435.73 525.17 442.75 521.22&#10;  Q 446.35 519.19 449.78 516.57&#10;  Q 455.89 511.90 462.25 508.03&#10;  C 464.45 506.69 464.96 504.15 467.18 502.69&#10;  C 470.03 500.82 472.24 498.21 474.90 496.05&#10;  Q 483.53 489.04 488.91 483.03&#10;  Q 490.99 480.70 495.94 473.61&#10;  Q 497.09 471.96 498.43 470.87&#10;  C 501.26 468.57 503.33 464.88 505.29 461.81&#10;  C 506.57 459.80 508.54 458.60 509.84 456.53&#10;  Q 511.87 453.29 513.42 450.15&#10;  C 515.34 446.24 518.26 443.42 520.01 439.36&#10;  Q 521.23 436.55 522.90 433.51&#10;  Q 527.38 425.37 530.99 416.74&#10;  Q 533.18 411.49 535.64 405.85&#10;  Q 537.86 400.76 539.80 394.78&#10;  C 540.47 392.73 540.57 390.53 541.37 388.50&#10;  Q 542.44 385.75 543.51 383.04&#10;  C 544.44 380.67 544.82 378.02 545.20 375.50&#10;  Q 545.62 372.74 546.67 370.07&#10;  Q 547.70 367.46 548.07 364.23&#10;  Q 548.83 357.72 549.85 350.82&#10;  C 550.42 346.92 550.29 343.12 551.16 339.47&#10;  C 551.72 337.14 551.27 334.81 551.69 332.55&#10;  Q 552.17 329.91 552.22 327.41&#10;  Q 552.42 316.71 552.27 306.24&#10;  C 552.26 305.10 551.70 304.16 551.72 303.06&#10;  Q 551.82 295.90 550.52 288.14&#10;  Q 550.71 286.99 550.22 284.26&#10;  Q 549.04 277.77 547.88 271.26&#10;  C 547.30 267.98 545.98 264.41 545.03 261.02&#10;  Q 544.58 259.44 543.56 257.96&#10;  Q 543.22 257.47 542.93 257.99&#10;  Q 539.24 264.58 535.17 271.21&#10;  C 534.12 272.92 533.46 274.72 532.35 276.40&#10;  Q 527.29 284.05 526.06 286.79&#10;  Q 521.66 296.59 515.46 305.29&#10;  C 512.39 309.61 510.19 314.12 507.39 318.59&#10;  C 505.85 321.04 503.35 322.69 502.36 325.35&#10;  Q 501.50 327.67 499.86 329.73&#10;  Q 496.19 334.37 492.98 339.45&#10;  C 490.76 342.97 488.36 346.34 486.01 349.75&#10;  C 482.41 354.96 478.26 359.40 474.54 364.30&#10;  Q 473.34 365.88 472.35 367.67&#10;  C 471.09 369.96 468.88 371.67 467.03 373.48&#10;  C 465.92 374.56 465.61 375.94 464.67 377.14&#10;  Q 460.41 382.66 455.18 387.39&#10;  Q 453.42 388.99 452.63 390.75&#10;  C 450.90 394.59 447.40 396.64 444.98 399.94&#10;  Q 443.08 402.52 440.64 404.94&#10;  Q 438.39 407.18 436.14 409.77&#10;  Q 431.62 414.95 426.68 419.40&#10;  C 423.76 422.02 421.51 425.07 418.72 427.69&#10;  C 412.14 433.85 406.11 440.60 399.55 446.78&#10;  C 396.85 449.32 394.23 451.00 392.36 454.36&#10;  A 1.01 1.00 44.7 0 0 392.37 455.34&#10;  L 402.21 472.33&#10;  Z&#10;  M 288.55 558.78&#10;  Q 291.57 559.49 295.50 559.50&#10;  Q 304.71 559.52 314.06 559.33&#10;  C 326.39 559.08 338.53 556.61 350.66 555.23&#10;  C 353.45 554.92 355.93 553.82 358.80 553.63&#10;  Q 365.65 553.19 371.04 551.69&#10;  Q 375.47 550.46 380.35 549.23&#10;  Q 385.52 547.92 390.20 546.03&#10;  Q 399.13 542.43 408.31 538.47&#10;  A 1.31 1.31 0.0 0 0 409.09 537.07&#10;  C 408.72 534.71 408.57 532.74 407.51 530.45&#10;  Q 405.63 526.40 403.77 522.19&#10;  Q 402.16 518.54 400.38 513.78&#10;  Q 396.76 504.03 394.12 497.87&#10;  Q 392.13 493.22 388.38 487.52&#10;  C 386.99 483.60 384.63 479.99 382.99 476.45&#10;  Q 380.76 471.64 377.93 467.70&#10;  Q 377.64 467.30 377.19 467.51&#10;  C 373.48 469.25 371.55 472.61 368.52 475.18&#10;  C 363.98 479.03 359.26 482.65 354.73 486.50&#10;  Q 349.07 491.32 342.93 495.78&#10;  C 336.50 500.45 330.38 505.68 324.28 510.76&#10;  C 321.00 513.50 316.51 514.06 313.91 517.97&#10;  Q 312.78 519.67 311.05 520.64&#10;  Q 304.63 524.23 299.12 528.73&#10;  C 295.97 531.30 292.58 533.08 289.38 535.58&#10;  Q 286.75 537.63 283.35 539.66&#10;  Q 280.26 541.51 277.18 543.63&#10;  Q 269.00 549.27 259.92 554.16&#10;  Q 258.98 554.66 259.79 555.72&#10;  A 1.38 1.37 75.8 0 0 260.65 556.24&#10;  Q 275.11 558.85 288.55 558.78&#10;  Z" data-c-fill="12162a"/>
<path fill="#f6d7aa" d="&#10;  M 527.36 39.77&#10;  Q 526.12 40.71 525.14 41.78&#10;  C 522.30 44.88 518.71 47.47 515.52 50.24&#10;  Q 512.56 52.81 509.45 55.21&#10;  Q 506.34 57.60 503.28 60.05&#10;  Q 502.68 60.53 500.24 62.98&#10;  Q 498.67 64.56 496.77 65.50&#10;  C 496.51 61.23 497.16 56.79 497.23 53.18&#10;  C 497.29 50.57 497.16 48.12 497.83 45.67&#10;  Q 499.93 38.04 505.86 33.04&#10;  C 509.52 29.96 517.05 31.87 519.92 34.09&#10;  Q 523.53 36.90 527.36 39.77&#10;  Z" data-c-fill="f6d7aa"/>
<path fill="#fdb05d" d="&#10;  M 527.36 39.77&#10;  Q 535.21 46.81 544.11 52.65&#10;  Q 546.65 54.32 548.37 55.96&#10;  Q 550.34 57.84 552.20 59.74&#10;  Q 555.52 63.14 560.78 66.39&#10;  Q 563.74 68.23 565.72 71.01&#10;  Q 568.81 75.39 569.40 79.15&#10;  C 570.60 86.84 567.37 93.95 560.29 97.17&#10;  C 556.82 98.75 554.36 100.94 550.47 101.91&#10;  Q 544.01 103.53 537.78 105.26&#10;  Q 535.11 106.01 529.58 109.35&#10;  C 528.16 110.21 527.44 111.60 525.93 112.19&#10;  Q 523.89 112.98 521.82 113.43&#10;  C 518.58 114.14 515.86 117.45 513.66 119.72&#10;  C 512.50 120.92 511.14 121.69 509.76 122.59&#10;  Q 509.18 122.97 509.50 123.57&#10;  C 511.22 126.81 511.82 130.08 513.96 133.23&#10;  Q 521.52 144.37 526.72 156.69&#10;  Q 528.45 160.77 529.54 164.48&#10;  C 530.58 168.02 532.25 171.22 532.43 175.00&#10;  Q 532.86 184.13 532.64 192.93&#10;  Q 532.48 199.41 530.52 206.39&#10;  Q 526.28 221.55 519.85 235.03&#10;  C 517.17 240.66 513.94 245.50 511.40 251.33&#10;  C 509.72 255.19 506.78 258.86 505.05 262.95&#10;  C 503.99 265.46 502.18 267.53 500.91 269.99&#10;  Q 497.77 276.06 494.11 281.49&#10;  C 490.13 287.37 487.38 294.36 483.01 300.06&#10;  Q 479.37 304.81 475.83 309.65&#10;  C 474.37 311.66 473.39 313.81 472.01 315.81&#10;  Q 463.29 328.48 453.46 341.48&#10;  Q 452.24 343.08 451.15 344.85&#10;  C 449.61 347.33 447.34 348.89 445.69 351.14&#10;  C 442.86 355.00 439.69 358.61 436.82 362.37&#10;  C 434.05 366.01 430.66 368.68 427.82 372.32&#10;  C 425.60 375.15 422.53 377.52 420.62 380.52&#10;  C 419.74 381.89 419.15 383.26 417.74 384.21&#10;  C 416.12 385.31 414.61 386.34 413.39 387.91&#10;  C 410.79 391.26 408.15 395.61 404.60 398.01&#10;  C 402.02 399.77 400.77 402.50 398.24 404.47&#10;  Q 395.03 406.97 392.49 410.54&#10;  C 391.06 412.55 389.09 413.51 387.40 415.17&#10;  Q 381.51 420.99 375.46 426.97&#10;  C 371.71 430.68 367.36 433.46 363.70 437.20&#10;  Q 357.62 443.43 352.03 447.37&#10;  Q 348.51 449.85 346.95 452.07&#10;  Q 345.21 454.55 343.27 455.96&#10;  C 333.81 462.87 325.18 470.83 315.94 477.91&#10;  C 310.23 482.29 304.90 486.92 299.23 490.98&#10;  Q 291.31 496.65 283.56 502.21&#10;  C 280.31 504.54 276.70 506.51 273.70 509.02&#10;  C 269.76 512.31 264.76 514.00 260.99 516.99&#10;  C 255.23 521.55 248.76 524.54 243.04 528.45&#10;  Q 238.57 531.50 234.42 533.72&#10;  Q 227.40 537.47 220.37 541.35&#10;  Q 216.73 543.36 213.13 544.61&#10;  C 207.15 546.68 201.70 548.59 195.19 549.68&#10;  Q 190.03 550.54 184.51 551.36&#10;  Q 182.33 551.69 176.82 551.50&#10;  Q 173.27 551.38 169.48 550.42&#10;  C 165.13 549.32 160.74 548.97 156.41 547.52&#10;  Q 144.66 543.59 135.50 537.89&#10;  Q 131.41 535.34 127.40 533.05&#10;  C 122.59 530.31 118.30 526.98 113.60 524.10&#10;  Q 112.31 523.30 113.23 524.51&#10;  L 114.02 525.56&#10;  Q 114.36 526.02 114.29 526.59&#10;  Q 113.34 533.68 112.38 536.74&#10;  Q 108.99 547.55 107.05 556.21&#10;  Q 103.56 571.79 100.08 587.40&#10;  Q 99.01 592.18 96.97 597.09&#10;  Q 95.13 601.53 90.28 601.30&#10;  Q 86.41 601.11 82.95 600.34&#10;  Q 79.68 599.61 77.05 596.73&#10;  C 69.35 588.26 58.78 581.99 49.80 574.64&#10;  Q 43.82 569.73 40.20 566.30&#10;  Q 37.01 563.28 35.03 560.25&#10;  Q 33.55 557.99 32.93 555.57&#10;  Q 40.23 552.83 47.54 550.41&#10;  Q 51.55 549.08 56.86 546.91&#10;  Q 61.38 545.06 66.19 543.48&#10;  C 68.59 542.70 70.69 541.25 73.11 540.29&#10;  C 74.97 539.56 76.31 538.30 78.24 537.54&#10;  C 80.64 536.61 82.87 534.98 85.05 534.07&#10;  Q 97.75 528.77 110.37 523.40&#10;  A 1.01 1.01 0.0 0 0 110.46 521.59&#10;  Q 101.99 516.94 95.11 511.03&#10;  L 104.33 506.64&#10;  Q 106.34 505.68 104.28 504.84&#10;  C 100.68 503.37 101.82 499.94 101.16 496.95&#10;  Q 99.71 490.35 98.24 483.80&#10;  L 102.04 483.69&#10;  Q 102.53 488.30 104.05 491.49&#10;  Q 106.06 495.72 109.25 499.59&#10;  C 111.35 502.12 112.33 505.04 114.48 507.54&#10;  Q 114.53 507.60 114.61 507.61&#10;  Q 119.74 507.86 124.97 507.69&#10;  A 0.11 0.11 0.0 0 0 125.06 507.53&#10;  Q 120.79 498.62 117.66 490.72&#10;  C 114.51 482.77 114.93 474.04 115.32 465.00&#10;  Q 115.50 460.66 116.72 457.27&#10;  C 118.98 450.98 121.25 445.01 124.65 439.09&#10;  C 126.12 436.53 128.12 434.61 129.82 432.28&#10;  Q 131.69 429.70 134.13 427.77&#10;  C 138.03 424.68 140.87 420.93 145.45 418.42&#10;  Q 151.40 415.16 157.61 411.57&#10;  Q 162.64 408.66 167.82 406.02&#10;  Q 174.96 402.39 178.04 400.47&#10;  Q 185.75 395.67 193.69 390.36&#10;  C 198.40 387.20 203.79 385.10 208.04 381.23&#10;  C 212.21 377.44 216.88 374.10 221.58 371.09&#10;  C 226.48 367.94 230.92 363.65 235.12 360.54&#10;  Q 245.03 353.21 252.38 345.96&#10;  Q 256.38 342.02 260.54 338.83&#10;  Q 264.98 335.40 269.04 330.69&#10;  C 271.52 327.82 274.68 325.37 277.59 322.82&#10;  C 279.60 321.05 280.64 318.62 282.78 317.18&#10;  C 285.78 315.16 287.82 312.10 290.72 309.72&#10;  C 291.66 308.94 292.63 307.03 293.77 305.93&#10;  Q 297.95 301.87 301.49 297.48&#10;  C 303.91 294.49 306.85 292.13 309.08 288.98&#10;  C 311.34 285.77 314.51 283.37 316.90 280.12&#10;  Q 318.36 278.14 320.16 276.14&#10;  Q 320.84 275.37 321.54 274.59&#10;  Q 326.70 268.83 329.59 263.78&#10;  C 330.88 261.51 332.67 259.49 334.33 257.47&#10;  C 336.68 254.61 338.43 251.39 340.89 248.58&#10;  C 342.87 246.31 343.82 243.47 346.14 241.43&#10;  Q 348.12 239.69 349.68 237.35&#10;  Q 357.84 225.11 365.38 213.22&#10;  C 367.89 209.26 371.06 206.01 372.95 201.79&#10;  C 373.91 199.66 375.41 197.94 376.73 196.06&#10;  C 378.95 192.88 380.46 189.45 382.16 186.06&#10;  C 383.62 183.14 386.07 180.84 387.72 177.93&#10;  Q 392.57 169.42 396.27 162.52&#10;  Q 397.91 159.46 399.45 155.36&#10;  Q 400.94 151.38 403.20 148.49&#10;  Q 407.00 143.64 411.87 137.65&#10;  Q 414.16 134.82 416.65 132.65&#10;  C 419.90 129.80 423.25 127.80 426.70 125.46&#10;  C 430.11 123.14 433.99 121.61 437.60 119.66&#10;  C 439.88 118.44 442.45 117.99 444.89 117.10&#10;  C 447.04 116.31 449.45 116.39 451.70 116.54&#10;  Q 452.35 116.58 452.49 115.94&#10;  C 453.49 111.31 451.29 108.59 447.80 106.12&#10;  C 446.02 104.86 443.93 104.97 442.02 105.79&#10;  Q 440.59 105.75 440.46 105.00&#10;  Q 440.09 102.94 438.03 103.20&#10;  Q 446.25 101.19 450.50 101.68&#10;  Q 454.02 102.08 457.66 102.36&#10;  Q 461.26 102.64 464.78 103.46&#10;  Q 467.51 104.10 470.20 104.55&#10;  C 475.81 105.50 481.28 108.58 485.49 112.25&#10;  Q 486.12 112.80 486.40 112.01&#10;  Q 488.47 106.27 491.03 100.67&#10;  Q 492.82 96.74 493.87 90.44&#10;  Q 495.98 77.85 496.77 65.50&#10;  Q 498.67 64.56 500.24 62.98&#10;  Q 502.68 60.53 503.28 60.05&#10;  Q 506.34 57.60 509.45 55.21&#10;  Q 512.56 52.81 515.52 50.24&#10;  C 518.71 47.47 522.30 44.88 525.14 41.78&#10;  Q 526.12 40.71 527.36 39.77&#10;  Z" data-c-fill="fdb05d"/>
<path fill="#fdddd9" d="&#10;  M 372.93 106.80&#10;  C 370.84 109.04 368.39 112.03 367.31 114.94&#10;  Q 367.06 115.62 366.53 115.12&#10;  Q 364.73 113.45 363.51 111.43&#10;  C 362.57 109.88 361.09 109.16 359.93 107.86&#10;  C 355.52 102.91 351.56 97.38 346.90 92.62&#10;  C 344.68 90.35 342.92 87.73 340.72 85.42&#10;  Q 336.64 81.13 332.63 76.70&#10;  Q 332.11 76.12 332.87 76.29&#10;  Q 337.16 77.27 341.73 77.53&#10;  C 346.05 77.77 350.17 79.01 354.34 79.86&#10;  Q 369.13 82.87 382.54 85.91&#10;  Q 386.53 86.82 391.32 88.56&#10;  A 0.28 0.28 0.0 0 1 391.44 88.99&#10;  C 388.99 92.20 385.19 94.20 382.34 97.04&#10;  Q 377.54 101.83 372.93 106.80&#10;  Z" data-c-fill="fdddd9"/>
<path fill="#fdddd9" d="&#10;  M 213.68 91.31&#10;  C 217.22 89.95 220.79 88.91 224.31 87.61&#10;  Q 228.23 86.15 231.88 85.17&#10;  Q 243.85 81.94 258.04 79.18&#10;  Q 267.14 77.40 275.96 77.35&#10;  C 278.60 77.33 280.94 76.57 283.61 76.74&#10;  A 0.23 0.23 0.0 0 1 283.79 77.08&#10;  Q 280.66 82.36 276.29 86.33&#10;  C 273.91 88.49 273.56 91.84 270.78 93.68&#10;  Q 268.99 94.86 267.77 96.55&#10;  Q 264.05 101.72 259.71 105.77&#10;  C 257.38 107.95 255.42 110.48 253.51 113.04&#10;  Q 252.32 114.63 250.99 115.76&#10;  Q 247.27 118.92 244.51 122.60&#10;  Q 242.84 124.82 240.74 126.33&#10;  Q 237.51 128.66 234.78 131.98&#10;  C 232.03 135.33 228.19 137.11 225.61 140.45&#10;  C 223.24 143.51 219.99 145.48 217.24 148.28&#10;  Q 215.59 149.98 213.67 151.58&#10;  C 207.10 157.08 200.52 162.69 193.77 167.77&#10;  C 187.57 172.43 182.42 177.75 175.73 181.44&#10;  C 173.87 182.46 172.63 184.24 170.83 185.17&#10;  C 168.02 186.64 166.03 188.70 163.50 190.46&#10;  Q 157.43 194.70 152.07 199.34&#10;  A 0.51 0.51 0.0 0 1 151.30 199.20&#10;  Q 150.08 197.01 149.64 194.69&#10;  C 148.47 188.58 146.25 183.24 144.83 177.28&#10;  Q 143.38 171.20 141.13 164.54&#10;  Q 137.96 155.13 136.44 143.30&#10;  C 136.31 142.31 135.97 141.56 135.54 140.69&#10;  Q 135.30 140.18 135.70 139.79&#10;  C 138.34 137.21 140.85 134.47 143.83 132.34&#10;  C 147.25 129.89 150.20 126.79 153.67 124.53&#10;  C 157.45 122.06 160.90 119.17 164.76 116.87&#10;  Q 167.67 115.14 170.67 113.43&#10;  C 173.48 111.84 175.64 109.62 178.43 108.12&#10;  Q 185.42 104.34 192.15 100.65&#10;  Q 198.74 97.04 202.72 95.51&#10;  Q 207.96 93.51 213.68 91.31&#10;  Z" data-c-fill="fdddd9"/>
<path fill="#fdddd9" d="&#10;  M 173.74 254.87&#10;  C 171.44 250.63 170.42 245.91 167.98 241.75&#10;  C 164.88 236.46 162.89 230.04 160.76 224.34&#10;  C 160.27 223.05 159.52 221.79 158.47 220.89&#10;  Q 157.09 219.71 158.58 218.68&#10;  Q 162.78 215.81 167.04 213.16&#10;  Q 169.20 211.82 171.02 209.85&#10;  C 174.58 206.02 179.76 204.17 183.55 200.41&#10;  Q 188.52 195.49 195.64 191.09&#10;  Q 200.11 188.34 203.69 185.12&#10;  Q 206.54 182.56 209.90 180.43&#10;  C 216.43 176.27 221.20 169.40 227.60 164.49&#10;  C 232.97 160.37 237.42 155.49 242.73 151.29&#10;  C 244.97 149.52 246.21 146.95 248.52 145.37&#10;  Q 250.90 143.74 252.66 141.32&#10;  C 255.45 137.46 259.39 135.18 262.58 131.75&#10;  Q 267.19 126.80 271.27 121.92&#10;  Q 273.80 118.90 276.14 116.45&#10;  C 278.43 114.05 280.79 111.91 282.69 109.09&#10;  Q 285.88 104.35 290.18 100.36&#10;  C 292.66 98.07 294.36 95.06 296.80 92.63&#10;  C 298.27 91.16 298.63 89.18 299.96 87.61&#10;  C 302.69 84.41 305.33 80.23 309.26 78.46&#10;  Q 309.79 78.22 310.10 78.71&#10;  C 312.80 83.08 317.20 86.34 320.53 90.84&#10;  C 326.00 98.23 332.04 104.65 337.60 111.40&#10;  Q 339.81 114.08 342.03 116.43&#10;  C 344.11 118.63 345.80 121.05 348.07 123.01&#10;  Q 350.55 125.15 353.04 127.73&#10;  C 354.29 129.02 354.71 130.56 356.00 131.73&#10;  Q 356.49 132.17 356.00 132.60&#10;  C 353.83 134.55 353.65 137.30 352.21 139.77&#10;  Q 345.74 150.86 339.23 162.46&#10;  C 337.46 165.62 335.94 168.87 333.96 171.90&#10;  Q 328.43 180.35 323.11 189.23&#10;  Q 320.92 192.88 318.33 195.97&#10;  Q 315.53 199.31 313.68 202.51&#10;  Q 311.14 206.89 307.83 211.89&#10;  C 306.03 214.60 303.69 216.61 302.16 219.22&#10;  Q 296.06 229.62 293.75 232.09&#10;  Q 285.08 241.38 276.97 251.65&#10;  Q 274.41 254.89 271.74 257.72&#10;  C 269.26 260.35 267.73 263.29 265.07 265.84&#10;  Q 260.20 270.51 255.60 275.01&#10;  C 253.84 276.73 252.94 278.84 251.17 280.62&#10;  Q 244.52 287.30 237.69 293.43&#10;  Q 235.96 294.98 234.39 296.74&#10;  C 232.99 298.31 231.13 299.41 229.58 300.82&#10;  Q 220.42 309.12 212.24 315.99&#10;  Q 210.82 317.18 209.24 318.28&#10;  A 0.66 0.66 0.0 0 1 208.30 318.07&#10;  Q 203.16 309.33 197.81 300.86&#10;  C 194.87 296.22 192.26 291.40 189.53 286.80&#10;  C 186.18 281.18 183.69 275.48 181.04 269.63&#10;  C 179.66 266.60 177.70 264.04 176.49 260.88&#10;  Q 175.29 257.72 173.74 254.87&#10;  Z" data-c-fill="fdddd9"/>
<path fill="#fed386" d="&#10;  M 438.03 103.20&#10;  Q 440.09 102.94 440.46 105.00&#10;  Q 440.59 105.75 442.02 105.79&#10;  Q 438.42 108.17 434.39 109.44&#10;  C 431.12 110.46 427.44 112.41 424.71 114.42&#10;  C 421.34 116.91 417.62 118.33 414.38 120.96&#10;  Q 407.82 126.29 402.02 132.62&#10;  C 400.01 134.81 398.58 137.32 397.00 139.84&#10;  C 394.63 143.62 393.30 147.72 391.07 151.60&#10;  C 390.20 153.10 388.79 153.98 387.58 155.16&#10;  Q 386.19 156.52 385.34 158.26&#10;  Q 383.51 161.98 381.38 165.45&#10;  Q 379.36 168.73 377.64 172.60&#10;  Q 375.76 176.85 372.49 181.72&#10;  Q 371.14 183.74 370.59 185.89&#10;  Q 370.06 187.96 368.93 189.66&#10;  Q 367.76 191.41 367.39 193.20&#10;  Q 366.75 196.32 365.93 199.05&#10;  Q 365.45 200.64 364.44 201.89&#10;  Q 363.28 203.31 362.85 205.09&#10;  A 1.89 1.88 -13.9 0 1 362.27 206.05&#10;  L 359.88 208.09&#10;  Q 359.48 208.43 359.37 208.93&#10;  Q 358.97 210.67 357.36 211.48&#10;  Q 356.89 211.71 356.61 212.16&#10;  Q 353.99 216.39 351.05 220.85&#10;  Q 350.42 221.80 350.23 222.89&#10;  C 349.91 224.76 348.26 225.45 347.16 226.76&#10;  Q 342.71 232.04 338.79 238.56&#10;  C 337.77 240.26 335.94 241.06 335.00 242.74&#10;  C 333.23 245.89 330.47 248.06 328.63 251.05&#10;  Q 325.10 256.82 320.92 261.67&#10;  Q 320.11 262.62 319.48 263.74&#10;  C 318.44 265.60 317.42 267.40 315.96 268.93&#10;  C 313.05 271.98 310.53 275.29 307.53 278.19&#10;  Q 305.23 280.42 303.15 283.00&#10;  C 300.29 286.55 297.09 289.75 294.09 293.19&#10;  Q 291.86 295.75 289.04 298.10&#10;  Q 276.26 308.79 263.90 321.45&#10;  Q 260.66 324.77 257.00 327.31&#10;  Q 247.28 334.05 238.57 342.24&#10;  C 236.53 344.16 234.17 345.56 232.26 347.55&#10;  Q 230.17 349.72 227.94 351.62&#10;  Q 215.94 361.81 203.77 370.38&#10;  C 202.33 371.40 201.09 372.64 199.60 373.59&#10;  Q 194.27 377.01 189.67 380.42&#10;  Q 185.31 383.66 180.16 386.64&#10;  Q 168.66 393.30 157.44 399.55&#10;  Q 153.26 401.88 148.56 404.41&#10;  Q 141.51 408.19 139.92 409.67&#10;  Q 133.78 415.33 126.70 419.66&#10;  Q 124.32 421.10 122.75 423.34&#10;  C 119.73 427.66 115.44 431.16 112.96 435.78&#10;  C 111.04 439.34 109.10 442.38 107.67 446.28&#10;  Q 105.55 452.05 104.82 455.30&#10;  C 103.73 460.18 102.07 465.11 101.77 469.84&#10;  Q 101.32 476.83 102.04 483.69&#10;  L 98.24 483.80&#10;  Q 96.56 473.03 96.80 469.50&#10;  Q 97.21 463.42 97.48 457.95&#10;  C 97.87 450.29 101.09 444.56 104.38 437.99&#10;  C 107.01 432.73 110.42 427.97 113.36 422.81&#10;  Q 114.31 421.15 115.73 419.78&#10;  C 119.40 416.25 122.89 412.30 127.08 409.39&#10;  Q 133.57 404.90 140.64 400.97&#10;  Q 143.46 399.41 146.02 397.61&#10;  C 148.38 395.95 151.23 395.02 153.76 393.54&#10;  Q 159.56 390.15 165.51 387.16&#10;  Q 168.88 385.47 172.27 382.94&#10;  Q 175.81 380.31 179.97 378.00&#10;  Q 185.47 374.95 191.65 370.23&#10;  C 196.08 366.85 200.96 364.21 205.41 360.57&#10;  Q 209.65 357.10 214.08 354.24&#10;  C 218.27 351.54 221.68 347.75 225.67 344.61&#10;  C 230.44 340.86 235.25 337.15 239.56 333.03&#10;  C 243.85 328.93 248.66 325.71 252.74 321.30&#10;  Q 255.72 318.08 259.01 315.24&#10;  C 265.72 309.46 271.47 302.66 277.85 296.42&#10;  C 281.70 292.65 285.24 287.92 289.36 283.82&#10;  Q 296.01 277.19 300.18 271.00&#10;  C 302.23 267.95 305.18 265.89 306.93 262.67&#10;  C 308.67 259.48 311.51 257.44 313.41 254.37&#10;  Q 316.85 248.83 319.77 246.11&#10;  Q 323.87 242.28 326.03 238.42&#10;  Q 327.34 236.08 329.28 234.22&#10;  C 331.54 232.06 332.48 229.24 334.45 226.89&#10;  C 337.84 222.84 339.27 218.05 342.56 213.89&#10;  Q 344.53 211.39 346.52 208.39&#10;  Q 348.47 205.43 349.76 202.53&#10;  C 351.89 197.73 355.45 194.25 358.11 189.79&#10;  Q 361.04 184.87 363.87 180.58&#10;  Q 366.37 176.80 370.22 169.51&#10;  Q 373.30 163.66 377.08 158.02&#10;  Q 379.22 154.82 380.83 151.11&#10;  Q 382.36 147.58 384.44 144.12&#10;  Q 388.61 137.15 392.81 131.03&#10;  C 397.09 124.78 403.94 119.12 410.09 114.41&#10;  C 417.24 108.94 428.84 104.22 438.03 103.20&#10;  Z" data-c-fill="fed386"/>
<path fill="#f6d7aa" d="&#10;  M 102.04 483.69&#10;  Q 101.32 476.83 101.77 469.84&#10;  C 102.07 465.11 103.73 460.18 104.82 455.30&#10;  Q 105.55 452.05 107.67 446.28&#10;  C 109.10 442.38 111.04 439.34 112.96 435.78&#10;  C 115.44 431.16 119.73 427.66 122.75 423.34&#10;  Q 124.32 421.10 126.70 419.66&#10;  Q 133.78 415.33 139.92 409.67&#10;  Q 141.51 408.19 148.56 404.41&#10;  Q 153.26 401.88 157.44 399.55&#10;  Q 168.66 393.30 180.16 386.64&#10;  Q 185.31 383.66 189.67 380.42&#10;  Q 194.27 377.01 199.60 373.59&#10;  C 201.09 372.64 202.33 371.40 203.77 370.38&#10;  Q 215.94 361.81 227.94 351.62&#10;  Q 230.17 349.72 232.26 347.55&#10;  C 234.17 345.56 236.53 344.16 238.57 342.24&#10;  Q 247.28 334.05 257.00 327.31&#10;  Q 260.66 324.77 263.90 321.45&#10;  Q 276.26 308.79 289.04 298.10&#10;  Q 291.86 295.75 294.09 293.19&#10;  C 297.09 289.75 300.29 286.55 303.15 283.00&#10;  Q 305.23 280.42 307.53 278.19&#10;  C 310.53 275.29 313.05 271.98 315.96 268.93&#10;  C 317.42 267.40 318.44 265.60 319.48 263.74&#10;  Q 320.11 262.62 320.92 261.67&#10;  Q 325.10 256.82 328.63 251.05&#10;  C 330.47 248.06 333.23 245.89 335.00 242.74&#10;  C 335.94 241.06 337.77 240.26 338.79 238.56&#10;  Q 342.71 232.04 347.16 226.76&#10;  C 348.26 225.45 349.91 224.76 350.23 222.89&#10;  Q 350.42 221.80 351.05 220.85&#10;  Q 353.99 216.39 356.61 212.16&#10;  Q 356.89 211.71 357.36 211.48&#10;  Q 358.97 210.67 359.37 208.93&#10;  Q 359.48 208.43 359.88 208.09&#10;  L 362.27 206.05&#10;  A 1.89 1.88 -13.9 0 0 362.85 205.09&#10;  Q 363.28 203.31 364.44 201.89&#10;  Q 365.45 200.64 365.93 199.05&#10;  Q 366.75 196.32 367.39 193.20&#10;  Q 367.76 191.41 368.93 189.66&#10;  Q 370.06 187.96 370.59 185.89&#10;  Q 371.14 183.74 372.49 181.72&#10;  Q 375.76 176.85 377.64 172.60&#10;  Q 379.36 168.73 381.38 165.45&#10;  Q 383.51 161.98 385.34 158.26&#10;  Q 386.19 156.52 387.58 155.16&#10;  C 388.79 153.98 390.20 153.10 391.07 151.60&#10;  C 393.30 147.72 394.63 143.62 397.00 139.84&#10;  C 398.58 137.32 400.01 134.81 402.02 132.62&#10;  Q 407.82 126.29 414.38 120.96&#10;  C 417.62 118.33 421.34 116.91 424.71 114.42&#10;  C 427.44 112.41 431.12 110.46 434.39 109.44&#10;  Q 438.42 108.17 442.02 105.79&#10;  C 443.93 104.97 446.02 104.86 447.80 106.12&#10;  C 451.29 108.59 453.49 111.31 452.49 115.94&#10;  Q 452.35 116.58 451.70 116.54&#10;  C 449.45 116.39 447.04 116.31 444.89 117.10&#10;  C 442.45 117.99 439.88 118.44 437.60 119.66&#10;  C 433.99 121.61 430.11 123.14 426.70 125.46&#10;  C 423.25 127.80 419.90 129.80 416.65 132.65&#10;  Q 414.16 134.82 411.87 137.65&#10;  Q 407.00 143.64 403.20 148.49&#10;  Q 400.94 151.38 399.45 155.36&#10;  Q 397.91 159.46 396.27 162.52&#10;  Q 392.57 169.42 387.72 177.93&#10;  C 386.07 180.84 383.62 183.14 382.16 186.06&#10;  C 380.46 189.45 378.95 192.88 376.73 196.06&#10;  C 375.41 197.94 373.91 199.66 372.95 201.79&#10;  C 371.06 206.01 367.89 209.26 365.38 213.22&#10;  Q 357.84 225.11 349.68 237.35&#10;  Q 348.12 239.69 346.14 241.43&#10;  C 343.82 243.47 342.87 246.31 340.89 248.58&#10;  C 338.43 251.39 336.68 254.61 334.33 257.47&#10;  C 332.67 259.49 330.88 261.51 329.59 263.78&#10;  Q 326.70 268.83 321.54 274.59&#10;  Q 320.84 275.37 320.16 276.14&#10;  Q 318.36 278.14 316.90 280.12&#10;  C 314.51 283.37 311.34 285.77 309.08 288.98&#10;  C 306.85 292.13 303.91 294.49 301.49 297.48&#10;  Q 297.95 301.87 293.77 305.93&#10;  C 292.63 307.03 291.66 308.94 290.72 309.72&#10;  C 287.82 312.10 285.78 315.16 282.78 317.18&#10;  C 280.64 318.62 279.60 321.05 277.59 322.82&#10;  C 274.68 325.37 271.52 327.82 269.04 330.69&#10;  Q 264.98 335.40 260.54 338.83&#10;  Q 256.38 342.02 252.38 345.96&#10;  Q 245.03 353.21 235.12 360.54&#10;  C 230.92 363.65 226.48 367.94 221.58 371.09&#10;  C 216.88 374.10 212.21 377.44 208.04 381.23&#10;  C 203.79 385.10 198.40 387.20 193.69 390.36&#10;  Q 185.75 395.67 178.04 400.47&#10;  Q 174.96 402.39 167.82 406.02&#10;  Q 162.64 408.66 157.61 411.57&#10;  Q 151.40 415.16 145.45 418.42&#10;  C 140.87 420.93 138.03 424.68 134.13 427.77&#10;  Q 131.69 429.70 129.82 432.28&#10;  C 128.12 434.61 126.12 436.53 124.65 439.09&#10;  C 121.25 445.01 118.98 450.98 116.72 457.27&#10;  Q 115.50 460.66 115.32 465.00&#10;  C 114.93 474.04 114.51 482.77 117.66 490.72&#10;  Q 120.79 498.62 125.06 507.53&#10;  A 0.11 0.11 0.0 0 1 124.97 507.69&#10;  Q 119.74 507.86 114.61 507.61&#10;  Q 114.53 507.60 114.48 507.54&#10;  C 112.33 505.04 111.35 502.12 109.25 499.59&#10;  Q 106.06 495.72 104.05 491.49&#10;  Q 102.53 488.30 102.04 483.69&#10;  Z" data-c-fill="f6d7aa"/>
<path fill="#beaebd" d="&#10;  M 557.68 154.01&#10;  Q 561.30 165.65 568.22 180.27&#10;  C 570.53 185.15 571.82 191.35 571.69 197.18&#10;  Q 571.40 210.41 570.60 214.38&#10;  Q 568.72 223.68 567.10 232.06&#10;  Q 566.91 233.08 565.39 235.93&#10;  C 563.98 232.93 562.42 230.13 561.33 227.04&#10;  Q 559.86 222.89 558.26 218.48&#10;  Q 557.60 216.68 558.02 214.32&#10;  Q 558.76 210.14 559.84 206.13&#10;  C 560.83 202.49 560.08 199.33 560.96 195.87&#10;  Q 561.54 193.63 561.57 191.12&#10;  C 561.64 186.24 562.04 181.26 561.26 176.47&#10;  C 560.52 171.92 560.42 168.45 559.92 164.38&#10;  Q 559.71 162.57 558.72 159.24&#10;  Q 557.95 156.66 557.68 154.01&#10;  Z" data-c-fill="beaebd"/>
<path fill="#fdddd9" d="&#10;  M 82.87 208.74&#10;  C 84.04 206.22 84.50 204.01 86.59 201.85&#10;  Q 88.38 200.00 89.53 197.92&#10;  Q 93.37 191.00 97.13 184.31&#10;  C 98.90 181.18 101.72 179.35 103.55 176.31&#10;  Q 108.43 168.20 114.34 162.07&#10;  C 115.66 160.70 116.43 159.05 117.18 157.34&#10;  Q 117.88 155.76 118.40 157.41&#10;  Q 120.40 163.69 121.56 170.43&#10;  C 122.14 173.79 123.71 176.60 124.48 179.86&#10;  C 125.62 184.62 127.27 189.04 128.62 193.74&#10;  Q 129.87 198.11 131.37 201.65&#10;  Q 133.31 206.21 134.20 211.43&#10;  Q 134.28 211.87 134.06 212.26&#10;  Q 133.20 213.83 131.35 214.83&#10;  Q 125.91 217.75 122.76 221.03&#10;  Q 120.67 223.20 117.75 225.02&#10;  C 111.84 228.71 106.69 233.53 100.73 237.37&#10;  Q 92.63 242.58 83.45 249.27&#10;  C 79.95 251.83 77.48 255.13 73.92 257.53&#10;  Q 68.59 261.10 64.45 264.69&#10;  Q 62.94 266.00 63.43 264.06&#10;  C 65.75 254.77 67.69 245.60 71.29 236.90&#10;  Q 75.38 226.98 78.77 217.31&#10;  C 79.84 214.26 81.53 211.65 82.87 208.74&#10;  Z" data-c-fill="fdddd9"/>
<path fill="#fdddd9" d="&#10;  M 172.12 187.68&#10;  A 0.12 0.12 0.0 0 1 172.29 187.67&#10;  L 172.33 187.71&#10;  A 2.87 1.28 -49.4 0 1 171.44 190.72&#10;  L 171.19 191.01&#10;  A 2.87 1.28 -49.4 0 1 168.35 192.36&#10;  L 168.31 192.32&#10;  A 0.12 0.12 0.0 0 1 168.29 192.15&#10;  L 172.12 187.68&#10;  Z" data-c-fill="fdddd9"/>
<path fill="#fdddd9" d="&#10;  M 162.76 279.53&#10;  C 164.27 282.04 165.04 284.71 166.64 287.25&#10;  Q 171.92 295.61 176.71 305.93&#10;  C 178.82 310.50 182.52 314.27 184.36 318.82&#10;  Q 185.04 320.48 185.82 321.70&#10;  Q 188.75 326.29 190.86 331.45&#10;  Q 191.06 331.94 190.90 332.46&#10;  C 189.45 337.03 185.20 336.34 182.20 339.23&#10;  C 179.09 342.24 175.19 344.09 171.71 346.60&#10;  Q 165.18 351.34 156.91 355.73&#10;  Q 155.74 356.35 154.62 357.10&#10;  Q 153.13 358.11 151.67 358.98&#10;  Q 137.86 367.14 124.05 375.47&#10;  C 122.23 376.57 120.18 377.30 118.50 378.43&#10;  Q 109.97 384.19 102.01 391.29&#10;  Q 100.67 392.47 99.06 393.26&#10;  C 97.39 394.08 97.20 396.36 95.87 397.64&#10;  Q 92.36 401.00 89.52 404.07&#10;  Q 86.98 406.82 84.75 411.64&#10;  C 83.45 414.47 81.11 416.43 79.37 419.03&#10;  A 1.22 1.21 -37.5 0 1 77.21 418.75&#10;  Q 73.95 409.17 70.55 400.26&#10;  Q 69.19 396.70 68.35 393.36&#10;  C 67.53 390.11 65.79 387.40 65.38 383.96&#10;  Q 64.78 378.98 63.20 374.87&#10;  Q 61.83 371.31 61.33 367.30&#10;  C 60.52 360.78 58.29 354.35 57.70 348.40&#10;  C 57.06 341.89 56.42 335.11 56.32 328.49&#10;  Q 56.08 313.25 56.54 297.01&#10;  C 56.65 293.16 59.88 292.96 62.16 290.94&#10;  Q 79.03 276.06 98.90 262.33&#10;  Q 103.80 258.94 108.27 254.76&#10;  C 112.36 250.94 117.16 248.34 121.60 244.94&#10;  Q 125.99 241.59 131.24 237.96&#10;  Q 135.90 234.76 141.01 230.99&#10;  Q 142.32 230.02 142.80 231.58&#10;  C 143.72 234.56 144.34 237.57 145.50 240.49&#10;  Q 147.50 245.51 149.42 250.75&#10;  Q 151.03 255.13 153.96 260.90&#10;  Q 157.16 267.23 159.85 273.70&#10;  Q 161.20 276.94 162.76 279.53&#10;  Z" data-c-fill="fdddd9"/>
<path fill="#beaebd" d="&#10;  M 550.52 288.14&#10;  Q 547.47 292.52 543.33 291.32&#10;  A 0.75 0.74 17.7 0 1 542.83 290.36&#10;  L 544.75 284.89&#10;  A 0.69 0.69 0.0 0 0 544.41 284.05&#10;  L 544.04 283.87&#10;  A 0.43 0.43 0.0 0 0 543.42 284.20&#10;  C 543.08 287.40 542.20 292.33 539.83 294.70&#10;  Q 539.41 295.12 539.31 295.71&#10;  Q 538.86 298.22 537.34 301.01&#10;  Q 536.88 301.83 536.97 300.90&#10;  Q 537.15 298.95 537.71 297.19&#10;  Q 537.77 296.99 537.58 296.92&#10;  L 537.57 296.91&#10;  Q 537.37 296.84 537.29 297.03&#10;  Q 536.11 299.63 535.12 302.21&#10;  Q 534.14 304.77 532.56 307.23&#10;  Q 530.16 310.97 528.86 315.65&#10;  Q 528.11 318.35 526.64 320.68&#10;  Q 522.02 327.98 517.43 335.01&#10;  C 514.34 339.76 511.75 344.85 508.09 349.30&#10;  C 505.57 352.38 503.84 356.00 501.17 358.93&#10;  C 498.58 361.79 496.91 365.26 494.47 368.08&#10;  Q 490.43 372.78 488.16 377.34&#10;  C 486.53 380.60 483.34 382.93 481.05 385.81&#10;  Q 477.10 390.76 473.12 395.81&#10;  Q 471.43 397.94 469.46 400.07&#10;  Q 467.49 402.19 466.03 404.33&#10;  Q 462.63 409.27 458.12 413.46&#10;  C 455.32 416.06 453.95 419.50 450.98 422.14&#10;  Q 448.32 424.52 445.90 427.31&#10;  C 441.08 432.90 435.24 437.64 430.55 443.31&#10;  Q 429.26 444.87 427.33 446.56&#10;  Q 423.34 450.04 417.99 456.25&#10;  Q 415.34 459.34 411.44 462.02&#10;  Q 410.07 462.96 407.31 467.25&#10;  Q 405.87 469.47 402.21 472.33&#10;  L 392.37 455.34&#10;  A 1.01 1.00 44.7 0 1 392.36 454.36&#10;  C 394.23 451.00 396.85 449.32 399.55 446.78&#10;  C 406.11 440.60 412.14 433.85 418.72 427.69&#10;  C 421.51 425.07 423.76 422.02 426.68 419.40&#10;  Q 431.62 414.95 436.14 409.77&#10;  Q 438.39 407.18 440.64 404.94&#10;  Q 443.08 402.52 444.98 399.94&#10;  C 447.40 396.64 450.90 394.59 452.63 390.75&#10;  Q 453.42 388.99 455.18 387.39&#10;  Q 460.41 382.66 464.67 377.14&#10;  C 465.61 375.94 465.92 374.56 467.03 373.48&#10;  C 468.88 371.67 471.09 369.96 472.35 367.67&#10;  Q 473.34 365.88 474.54 364.30&#10;  C 478.26 359.40 482.41 354.96 486.01 349.75&#10;  C 488.36 346.34 490.76 342.97 492.98 339.45&#10;  Q 496.19 334.37 499.86 329.73&#10;  Q 501.50 327.67 502.36 325.35&#10;  C 503.35 322.69 505.85 321.04 507.39 318.59&#10;  C 510.19 314.12 512.39 309.61 515.46 305.29&#10;  Q 521.66 296.59 526.06 286.79&#10;  Q 527.29 284.05 532.35 276.40&#10;  C 533.46 274.72 534.12 272.92 535.17 271.21&#10;  Q 539.24 264.58 542.93 257.99&#10;  Q 543.22 257.47 543.56 257.96&#10;  Q 544.58 259.44 545.03 261.02&#10;  C 545.98 264.41 547.30 267.98 547.88 271.26&#10;  Q 549.04 277.77 550.22 284.26&#10;  Q 550.71 286.99 550.52 288.14&#10;  Z" data-c-fill="beaebd"/>
<path fill="#fdddd9" d="&#10;  M 550.52 288.14&#10;  Q 551.82 295.90 551.72 303.06&#10;  C 551.70 304.16 552.26 305.10 552.27 306.24&#10;  Q 552.42 316.71 552.22 327.41&#10;  Q 552.17 329.91 551.69 332.55&#10;  C 551.27 334.81 551.72 337.14 551.16 339.47&#10;  C 550.29 343.12 550.42 346.92 549.85 350.82&#10;  Q 548.83 357.72 548.07 364.23&#10;  Q 547.70 367.46 546.67 370.07&#10;  Q 545.62 372.74 545.20 375.50&#10;  C 544.82 378.02 544.44 380.67 543.51 383.04&#10;  Q 542.44 385.75 541.37 388.50&#10;  C 540.57 390.53 540.47 392.73 539.80 394.78&#10;  Q 537.86 400.76 535.64 405.85&#10;  Q 533.18 411.49 530.99 416.74&#10;  Q 527.38 425.37 522.90 433.51&#10;  Q 521.23 436.55 520.01 439.36&#10;  C 518.26 443.42 515.34 446.24 513.42 450.15&#10;  Q 511.87 453.29 509.84 456.53&#10;  C 508.54 458.60 506.57 459.80 505.29 461.81&#10;  C 503.33 464.88 501.26 468.57 498.43 470.87&#10;  Q 497.09 471.96 495.94 473.61&#10;  Q 490.99 480.70 488.91 483.03&#10;  Q 483.53 489.04 474.90 496.05&#10;  C 472.24 498.21 470.03 500.82 467.18 502.69&#10;  C 464.96 504.15 464.45 506.69 462.25 508.03&#10;  Q 455.89 511.90 449.78 516.57&#10;  Q 446.35 519.19 442.75 521.22&#10;  Q 435.73 525.17 427.84 529.75&#10;  A 0.60 0.60 0.0 0 1 426.98 529.45&#10;  Q 423.99 521.95 421.47 514.11&#10;  Q 420.25 510.31 418.92 507.24&#10;  C 417.63 504.25 416.63 501.20 415.19 498.31&#10;  Q 413.30 494.50 411.91 490.64&#10;  C 410.83 487.63 409.32 484.92 408.05 481.93&#10;  Q 407.15 479.79 405.19 477.12&#10;  Q 403.44 474.74 402.21 472.33&#10;  Q 405.87 469.47 407.31 467.25&#10;  Q 410.07 462.96 411.44 462.02&#10;  Q 415.34 459.34 417.99 456.25&#10;  Q 423.34 450.04 427.33 446.56&#10;  Q 429.26 444.87 430.55 443.31&#10;  C 435.24 437.64 441.08 432.90 445.90 427.31&#10;  Q 448.32 424.52 450.98 422.14&#10;  C 453.95 419.50 455.32 416.06 458.12 413.46&#10;  Q 462.63 409.27 466.03 404.33&#10;  Q 467.49 402.19 469.46 400.07&#10;  Q 471.43 397.94 473.12 395.81&#10;  Q 477.10 390.76 481.05 385.81&#10;  C 483.34 382.93 486.53 380.60 488.16 377.34&#10;  Q 490.43 372.78 494.47 368.08&#10;  C 496.91 365.26 498.58 361.79 501.17 358.93&#10;  C 503.84 356.00 505.57 352.38 508.09 349.30&#10;  C 511.75 344.85 514.34 339.76 517.43 335.01&#10;  Q 522.02 327.98 526.64 320.68&#10;  Q 528.11 318.35 528.86 315.65&#10;  Q 530.16 310.97 532.56 307.23&#10;  Q 534.14 304.77 535.12 302.21&#10;  Q 536.11 299.63 537.29 297.03&#10;  Q 537.37 296.84 537.57 296.91&#10;  L 537.58 296.92&#10;  Q 537.77 296.99 537.71 297.19&#10;  Q 537.15 298.95 536.97 300.90&#10;  Q 536.88 301.83 537.34 301.01&#10;  Q 538.86 298.22 539.31 295.71&#10;  Q 539.41 295.12 539.83 294.70&#10;  C 542.20 292.33 543.08 287.40 543.42 284.20&#10;  A 0.43 0.43 0.0 0 1 544.04 283.87&#10;  L 544.41 284.05&#10;  A 0.69 0.69 0.0 0 1 544.75 284.89&#10;  L 542.83 290.36&#10;  A 0.75 0.74 17.7 0 0 543.33 291.32&#10;  Q 547.47 292.52 550.52 288.14&#10;  Z" data-c-fill="fdddd9"/>
<path fill="#beaebd" d="&#10;  M 388.38 487.52&#10;  Q 382.91 493.22 380.79 494.57&#10;  Q 375.57 497.91 371.25 502.22&#10;  C 365.58 507.88 358.40 511.86 352.67 517.11&#10;  C 347.20 522.12 340.93 526.10 334.71 530.30&#10;  C 330.10 533.41 326.03 537.29 321.02 540.06&#10;  C 314.81 543.49 308.81 547.39 302.59 550.86&#10;  Q 302.49 550.92 295.78 555.12&#10;  Q 292.58 557.12 288.55 558.78&#10;  Q 275.11 558.85 260.65 556.24&#10;  A 1.38 1.37 75.8 0 1 259.79 555.72&#10;  Q 258.98 554.66 259.92 554.16&#10;  Q 269.00 549.27 277.18 543.63&#10;  Q 280.26 541.51 283.35 539.66&#10;  Q 286.75 537.63 289.38 535.58&#10;  C 292.58 533.08 295.97 531.30 299.12 528.73&#10;  Q 304.63 524.23 311.05 520.64&#10;  Q 312.78 519.67 313.91 517.97&#10;  C 316.51 514.06 321.00 513.50 324.28 510.76&#10;  C 330.38 505.68 336.50 500.45 342.93 495.78&#10;  Q 349.07 491.32 354.73 486.50&#10;  C 359.26 482.65 363.98 479.03 368.52 475.18&#10;  C 371.55 472.61 373.48 469.25 377.19 467.51&#10;  Q 377.64 467.30 377.93 467.70&#10;  Q 380.76 471.64 382.99 476.45&#10;  C 384.63 479.99 386.99 483.60 388.38 487.52&#10;  Z" data-c-fill="beaebd"/>
<path fill="#fdddd9" d="&#10;  M 388.38 487.52&#10;  Q 392.13 493.22 394.12 497.87&#10;  Q 396.76 504.03 400.38 513.78&#10;  Q 402.16 518.54 403.77 522.19&#10;  Q 405.63 526.40 407.51 530.45&#10;  C 408.57 532.74 408.72 534.71 409.09 537.07&#10;  A 1.31 1.31 0.0 0 1 408.31 538.47&#10;  Q 399.13 542.43 390.20 546.03&#10;  Q 385.52 547.92 380.35 549.23&#10;  Q 375.47 550.46 371.04 551.69&#10;  Q 365.65 553.19 358.80 553.63&#10;  C 355.93 553.82 353.45 554.92 350.66 555.23&#10;  C 338.53 556.61 326.39 559.08 314.06 559.33&#10;  Q 304.71 559.52 295.50 559.50&#10;  Q 291.57 559.49 288.55 558.78&#10;  Q 292.58 557.12 295.78 555.12&#10;  Q 302.49 550.92 302.59 550.86&#10;  C 308.81 547.39 314.81 543.49 321.02 540.06&#10;  C 326.03 537.29 330.10 533.41 334.71 530.30&#10;  C 340.93 526.10 347.20 522.12 352.67 517.11&#10;  C 358.40 511.86 365.58 507.88 371.25 502.22&#10;  Q 375.57 497.91 380.79 494.57&#10;  Q 382.91 493.22 388.38 487.52&#10;  Z" data-c-fill="fdddd9"/>
<path fill="#f6d7aa" d="&#10;  M 95.11 511.03&#10;  Q 101.99 516.94 110.46 521.59&#10;  A 1.01 1.01 0.0 0 1 110.37 523.40&#10;  Q 97.75 528.77 85.05 534.07&#10;  C 82.87 534.98 80.64 536.61 78.24 537.54&#10;  C 76.31 538.30 74.97 539.56 73.11 540.29&#10;  C 70.69 541.25 68.59 542.70 66.19 543.48&#10;  Q 61.38 545.06 56.86 546.91&#10;  Q 51.55 549.08 47.54 550.41&#10;  Q 40.23 552.83 32.93 555.57&#10;  Q 32.47 553.37 31.99 551.67&#10;  Q 31.29 549.22 31.72 547.56&#10;  C 32.90 542.96 34.22 538.09 38.76 535.51&#10;  Q 44.58 532.20 50.01 529.76&#10;  C 53.58 528.15 57.04 526.30 60.60 524.94&#10;  Q 71.34 520.86 80.76 516.73&#10;  C 82.99 515.75 84.71 514.34 87.18 513.63&#10;  Q 91.53 512.38 95.11 511.03&#10;  Z" data-c-fill="f6d7aa"/>
<path fill="#d9d9e1" d="&#10;  M 142.37 574.11&#10;  Q 141.71 579.42 140.95 584.63&#10;  C 139.79 592.65 137.67 600.23 136.13 608.05&#10;  C 135.19 612.83 133.13 618.53 131.06 622.52&#10;  Q 129.63 625.29 125.88 630.00&#10;  L 98.72 630.00&#10;  Q 106.42 628.58 111.76 625.24&#10;  Q 112.94 624.50 113.83 623.10&#10;  C 115.08 621.12 117.31 619.67 119.11 618.24&#10;  C 121.33 616.47 122.58 613.81 123.42 611.14&#10;  Q 124.99 606.15 127.48 601.82&#10;  Q 129.30 598.66 129.42 594.44&#10;  C 129.56 589.49 131.82 585.75 132.47 581.05&#10;  Q 133.16 576.16 133.79 571.67&#10;  A 0.55 0.55 0.0 0 1 134.52 571.23&#10;  L 142.37 574.11&#10;  Z" data-c-fill="c4c3d5"/>
<path fill="#d9d9e1" d="&#10;  M 236.52 580.44&#10;  C 232.74 581.47 229.18 583.31 226.03 584.26&#10;  Q 222.73 585.25 219.34 586.41&#10;  C 208.47 590.13 197.07 588.86 185.99 587.62&#10;  Q 178.56 586.79 172.28 582.89&#10;  C 174.09 582.56 175.82 582.05 177.66 582.00&#10;  Q 185.52 581.78 193.31 581.47&#10;  C 194.89 581.41 196.34 580.71 197.92 580.67&#10;  Q 203.11 580.53 205.60 579.57&#10;  Q 208.84 578.32 211.70 577.45&#10;  C 214.37 576.65 216.56 575.29 219.10 574.53&#10;  Q 219.69 574.35 220.27 574.56&#10;  L 236.52 580.44&#10;  Z" data-c-fill="c4c3d5"/>
</svg>